<?xml version="1.0" encoding="UTF-8"?>
<!DOCTYPE svg PUBLIC "-//W3C//DTD SVG 1.1//EN" "http://www.w3.org/Graphics/SVG/1.1/DTD/svg11.dtd">
<svg xmlns="http://www.w3.org/2000/svg" version="1.1" width="550px" height="550px" style="shape-rendering:geometricPrecision; text-rendering:geometricPrecision; image-rendering:optimizeQuality; fill-rule:evenodd; clip-rule:evenodd" xmlns:xlink="http://www.w3.org/1999/xlink">
<g><path style="opacity:1" fill="#fdfdfd" d="M -0.5,-0.5 C 182.833,-0.5 366.167,-0.5 549.5,-0.5C 549.5,182.833 549.5,366.167 549.5,549.5C 366.167,549.5 182.833,549.5 -0.5,549.5C -0.5,366.167 -0.5,182.833 -0.5,-0.5 Z"/></g>
<g><path style="opacity:1" fill="#000000" d="M 97.5,6.5 C 97.5,36.8333 97.5,67.1667 97.5,97.5C 67.1667,97.5 36.8333,97.5 6.5,97.5C 6.5,67.1667 6.5,36.8333 6.5,6.5C 36.8333,6.5 67.1667,6.5 97.5,6.5 Z"/></g>
<g><path style="opacity:1" fill="#010101" d="M 124.5,19.5 C 120.167,19.5 115.833,19.5 111.5,19.5C 111.5,15.1667 111.5,10.8333 111.5,6.5C 115.833,6.5 120.167,6.5 124.5,6.5C 124.5,10.8333 124.5,15.1667 124.5,19.5 Z"/></g>
<g><path style="opacity:1" fill="#000000" d="M 202.5,45.5 C 189.5,45.5 176.5,45.5 163.5,45.5C 163.5,49.8333 163.5,54.1667 163.5,58.5C 159.167,58.5 154.833,58.5 150.5,58.5C 150.5,54.1667 150.5,49.8333 150.5,45.5C 146.167,45.5 141.833,45.5 137.5,45.5C 137.5,41.1667 137.5,36.8333 137.5,32.5C 133.167,32.5 128.833,32.5 124.5,32.5C 124.5,28.1667 124.5,23.8333 124.5,19.5C 133.167,19.5 141.833,19.5 150.5,19.5C 150.5,15.1667 150.5,10.8333 150.5,6.5C 159.167,6.5 167.833,6.5 176.5,6.5C 176.5,15.1667 176.5,23.8333 176.5,32.5C 180.833,32.5 185.167,32.5 189.5,32.5C 189.5,28.1667 189.5,23.8333 189.5,19.5C 193.833,19.5 198.167,19.5 202.5,19.5C 202.5,28.1667 202.5,36.8333 202.5,45.5 Z"/></g>
<g><path style="opacity:1" fill="#000000" d="M 267.5,19.5 C 263.167,19.5 258.833,19.5 254.5,19.5C 254.5,15.1667 254.5,10.8333 254.5,6.5C 258.833,6.5 263.167,6.5 267.5,6.5C 267.5,10.8333 267.5,15.1667 267.5,19.5 Z"/></g>
<g><path style="opacity:1" fill="#000000" d="M 333.5,6.5 C 337.5,6.5 341.5,6.5 345.5,6.5C 345.5,10.8333 345.5,15.1667 345.5,19.5C 341.5,19.5 337.5,19.5 333.5,19.5C 333.5,15.1667 333.5,10.8333 333.5,6.5 Z"/></g>
<g><path style="opacity:1" fill="#020202" d="M 424.5,84.5 C 420.167,84.5 415.833,84.5 411.5,84.5C 411.5,89.1667 411.5,93.8333 411.5,98.5C 415.833,98.5 420.167,98.5 424.5,98.5C 424.5,102.833 424.5,107.167 424.5,111.5C 420.167,111.5 415.833,111.5 411.5,111.5C 411.5,115.833 411.5,120.167 411.5,124.5C 420.167,124.5 428.833,124.5 437.5,124.5C 437.5,120.167 437.5,115.833 437.5,111.5C 441.833,111.5 446.167,111.5 450.5,111.5C 450.5,115.833 450.5,120.167 450.5,124.5C 454.833,124.5 459.167,124.5 463.5,124.5C 463.5,128.833 463.5,133.167 463.5,137.5C 446.167,137.5 428.833,137.5 411.5,137.5C 411.5,146.167 411.5,154.833 411.5,163.5C 415.833,163.5 420.167,163.5 424.5,163.5C 424.5,167.833 424.5,172.167 424.5,176.5C 420.167,176.5 415.833,176.5 411.5,176.5C 411.5,180.833 411.5,185.167 411.5,189.5C 415.833,189.5 420.167,189.5 424.5,189.5C 424.5,193.833 424.5,198.167 424.5,202.5C 411.5,202.5 398.5,202.5 385.5,202.5C 385.5,206.833 385.5,211.167 385.5,215.5C 381.167,215.5 376.833,215.5 372.5,215.5C 372.5,206.833 372.5,198.167 372.5,189.5C 368.167,189.5 363.833,189.5 359.5,189.5C 359.5,180.833 359.5,172.167 359.5,163.5C 355.167,163.5 350.833,163.5 346.5,163.5C 346.5,172.167 346.5,180.833 346.5,189.5C 341.833,189.5 337.167,189.5 332.5,189.5C 332.5,198.167 332.5,206.833 332.5,215.5C 337.167,215.5 341.833,215.5 346.5,215.5C 346.5,211.167 346.5,206.833 346.5,202.5C 350.833,202.5 355.167,202.5 359.5,202.5C 359.5,211.167 359.5,219.833 359.5,228.5C 363.833,228.5 368.167,228.5 372.5,228.5C 372.5,237.167 372.5,245.833 372.5,254.5C 376.833,254.5 381.167,254.5 385.5,254.5C 385.5,250.167 385.5,245.833 385.5,241.5C 389.833,241.5 394.167,241.5 398.5,241.5C 398.5,232.833 398.5,224.167 398.5,215.5C 402.833,215.5 407.167,215.5 411.5,215.5C 411.5,232.833 411.5,250.167 411.5,267.5C 407.167,267.5 402.833,267.5 398.5,267.5C 398.5,271.833 398.5,276.167 398.5,280.5C 394.167,280.5 389.833,280.5 385.5,280.5C 385.5,276.167 385.5,271.833 385.5,267.5C 376.833,267.5 368.167,267.5 359.5,267.5C 359.5,263.167 359.5,258.833 359.5,254.5C 355.167,254.5 350.833,254.5 346.5,254.5C 346.5,250.167 346.5,245.833 346.5,241.5C 342.167,241.5 337.833,241.5 333.5,241.5C 333.818,236.968 333.485,232.634 332.5,228.5C 328.5,228.5 324.5,228.5 320.5,228.5C 320.5,232.833 320.5,237.167 320.5,241.5C 320.5,245.833 320.5,250.167 320.5,254.5C 319.515,250.366 319.182,246.032 319.5,241.5C 319.5,237.167 319.5,232.833 319.5,228.5C 319.5,211.167 319.5,193.833 319.5,176.5C 315.167,176.5 310.833,176.5 306.5,176.5C 306.5,172.167 306.5,167.833 306.5,163.5C 315.5,163.5 324.5,163.5 333.5,163.5C 333.5,159.167 333.5,154.833 333.5,150.5C 337.5,150.5 341.5,150.5 345.5,150.5C 346.485,146.366 346.818,142.032 346.5,137.5C 350.833,137.5 355.167,137.5 359.5,137.5C 359.5,141.833 359.5,146.167 359.5,150.5C 368.167,150.5 376.833,150.5 385.5,150.5C 385.5,146.167 385.5,141.833 385.5,137.5C 381.167,137.5 376.833,137.5 372.5,137.5C 372.5,128.833 372.5,120.167 372.5,111.5C 368.167,111.5 363.833,111.5 359.5,111.5C 359.5,115.833 359.5,120.167 359.5,124.5C 355.167,124.5 350.833,124.5 346.5,124.5C 346.5,107.167 346.5,89.8333 346.5,72.5C 350.5,72.5 354.5,72.5 358.5,72.5C 358.174,81.3494 358.507,90.0161 359.5,98.5C 363.833,98.5 368.167,98.5 372.5,98.5C 372.5,94.1667 372.5,89.8333 372.5,85.5C 376.833,85.5 381.167,85.5 385.5,85.5C 385.5,89.8333 385.5,94.1667 385.5,98.5C 389.833,98.5 394.167,98.5 398.5,98.5C 398.5,85.1667 398.5,71.8333 398.5,58.5C 389.833,58.5 381.167,58.5 372.5,58.5C 372.5,62.8333 372.5,67.1667 372.5,71.5C 368.167,71.5 363.833,71.5 359.5,71.5C 359.5,62.8333 359.5,54.1667 359.5,45.5C 363.833,45.5 368.167,45.5 372.5,45.5C 372.5,32.5 372.5,19.5 372.5,6.5C 394.167,6.5 415.833,6.5 437.5,6.5C 437.5,10.8333 437.5,15.1667 437.5,19.5C 428.833,19.5 420.167,19.5 411.5,19.5C 411.5,23.8333 411.5,28.1667 411.5,32.5C 415.833,32.5 420.167,32.5 424.5,32.5C 424.5,36.8333 424.5,41.1667 424.5,45.5C 420.167,45.5 415.833,45.5 411.5,45.5C 411.5,49.8333 411.5,54.1667 411.5,58.5C 415.833,58.5 420.167,58.5 424.5,58.5C 424.5,67.1667 424.5,75.8333 424.5,84.5 Z"/></g>
<g><path style="opacity:1" fill="#020202" d="M 450.5,6.5 C 480.833,6.5 511.167,6.5 541.5,6.5C 541.5,37.1667 541.5,67.8333 541.5,98.5C 511.167,98.5 480.833,98.5 450.5,98.5C 450.5,67.8333 450.5,37.1667 450.5,6.5 Z"/></g>
<g><path style="opacity:1" fill="#fefefe" d="M 84.5,19.5 C 84.5,41.1667 84.5,62.8333 84.5,84.5C 62.8333,84.5 41.1667,84.5 19.5,84.5C 19.5,62.8333 19.5,41.1667 19.5,19.5C 41.1667,19.5 62.8333,19.5 84.5,19.5 Z"/></g>
<g><path style="opacity:1" fill="#010101" d="M 241.5,32.5 C 237.167,32.5 232.833,32.5 228.5,32.5C 228.5,28.1667 228.5,23.8333 228.5,19.5C 232.833,19.5 237.167,19.5 241.5,19.5C 241.5,23.8333 241.5,28.1667 241.5,32.5 Z"/></g>
<g><path style="opacity:1" fill="#010101" d="M 267.5,19.5 C 271.833,19.5 276.167,19.5 280.5,19.5C 280.5,23.8333 280.5,28.1667 280.5,32.5C 276.167,32.5 271.833,32.5 267.5,32.5C 267.5,28.1667 267.5,23.8333 267.5,19.5 Z"/></g>
<g><path style="opacity:1" fill="#080808" d="M 332.5,19.5 C 332.5,23.8333 332.5,28.1667 332.5,32.5C 336.833,32.5 341.167,32.5 345.5,32.5C 345.5,45.5 345.5,58.5 345.5,71.5C 341.167,71.5 336.833,71.5 332.5,71.5C 332.5,84.8333 332.5,98.1667 332.5,111.5C 328.167,111.5 323.833,111.5 319.5,111.5C 319.5,85.1667 319.5,58.8333 319.5,32.5C 315.167,32.5 310.833,32.5 306.5,32.5C 306.5,28.1667 306.5,23.8333 306.5,19.5C 315.167,19.5 323.833,19.5 332.5,19.5 Z"/></g>
<g><path style="opacity:1" fill="#ededed" d="M 333.5,6.5 C 333.5,10.8333 333.5,15.1667 333.5,19.5C 337.5,19.5 341.5,19.5 345.5,19.5C 345.5,23.8333 345.5,28.1667 345.5,32.5C 341.167,32.5 336.833,32.5 332.5,32.5C 332.5,28.1667 332.5,23.8333 332.5,19.5C 332.182,14.9677 332.515,10.6344 333.5,6.5 Z"/></g>
<g><path style="opacity:1" fill="#090909" d="M 346.5,19.5 C 350.833,19.5 355.167,19.5 359.5,19.5C 359.5,23.8333 359.5,28.1667 359.5,32.5C 355.167,32.5 350.833,32.5 346.5,32.5C 346.5,28.1667 346.5,23.8333 346.5,19.5 Z"/></g>
<g><path style="opacity:1" fill="#fefefe" d="M 385.5,19.5 C 389.833,19.5 394.167,19.5 398.5,19.5C 398.5,28.1667 398.5,36.8333 398.5,45.5C 394.167,45.5 389.833,45.5 385.5,45.5C 385.5,36.8333 385.5,28.1667 385.5,19.5 Z"/></g>
<g><path style="opacity:1" fill="#fafafa" d="M 463.5,19.5 C 485.167,19.5 506.833,19.5 528.5,19.5C 528.5,41.5 528.5,63.5 528.5,85.5C 506.833,85.5 485.167,85.5 463.5,85.5C 463.5,63.5 463.5,41.5 463.5,19.5 Z"/></g>
<g><path style="opacity:1" fill="#030303" d="M 124.5,32.5 C 128.833,32.5 133.167,32.5 137.5,32.5C 137.5,36.8333 137.5,41.1667 137.5,45.5C 137.5,49.8333 137.5,54.1667 137.5,58.5C 132.968,58.1818 128.634,58.5151 124.5,59.5C 124.5,63.5 124.5,67.5 124.5,71.5C 120.167,71.5 115.833,71.5 111.5,71.5C 111.5,58.5 111.5,45.5 111.5,32.5C 115.833,32.5 120.167,32.5 124.5,32.5 Z"/></g>
<g><path style="opacity:1" fill="#fbfbfb" d="M 124.5,32.5 C 128.833,32.5 133.167,32.5 137.5,32.5C 137.5,36.8333 137.5,41.1667 137.5,45.5C 133.167,45.5 128.833,45.5 124.5,45.5C 124.5,41.1667 124.5,36.8333 124.5,32.5 Z"/></g>
<g><path style="opacity:1" fill="#010101" d="M 241.5,32.5 C 245.833,32.5 250.167,32.5 254.5,32.5C 254.5,54.5 254.5,76.5 254.5,98.5C 250.167,98.5 245.833,98.5 241.5,98.5C 241.5,107.167 241.5,115.833 241.5,124.5C 245.833,124.5 250.167,124.5 254.5,124.5C 254.5,133.167 254.5,141.833 254.5,150.5C 250.167,150.5 245.833,150.5 241.5,150.5C 241.5,146.167 241.5,141.833 241.5,137.5C 237.167,137.5 232.833,137.5 228.5,137.5C 228.5,128.833 228.5,120.167 228.5,111.5C 224.167,111.5 219.833,111.5 215.5,111.5C 215.5,115.833 215.5,120.167 215.5,124.5C 206.833,124.5 198.167,124.5 189.5,124.5C 189.5,133.167 189.5,141.833 189.5,150.5C 176.5,150.5 163.5,150.5 150.5,150.5C 150.5,159.167 150.5,167.833 150.5,176.5C 154.833,176.5 159.167,176.5 163.5,176.5C 163.5,180.833 163.5,185.167 163.5,189.5C 159.167,189.5 154.833,189.5 150.5,189.5C 150.5,193.833 150.5,198.167 150.5,202.5C 146.167,202.5 141.833,202.5 137.5,202.5C 137.5,228.5 137.5,254.5 137.5,280.5C 141.833,280.5 146.167,280.5 150.5,280.5C 150.5,284.833 150.5,289.167 150.5,293.5C 141.833,293.5 133.167,293.5 124.5,293.5C 124.5,297.833 124.5,302.167 124.5,306.5C 120.167,306.5 115.833,306.5 111.5,306.5C 111.5,297.833 111.5,289.167 111.5,280.5C 102.833,280.5 94.1667,280.5 85.5,280.5C 85.5,276.167 85.5,271.833 85.5,267.5C 94.1667,267.5 102.833,267.5 111.5,267.5C 111.5,263.167 111.5,258.833 111.5,254.5C 115.833,254.5 120.167,254.5 124.5,254.5C 124.5,245.833 124.5,237.167 124.5,228.5C 120.167,228.5 115.833,228.5 111.5,228.5C 111.5,211.167 111.5,193.833 111.5,176.5C 102.833,176.5 94.1667,176.5 85.5,176.5C 85.5,180.833 85.5,185.167 85.5,189.5C 89.8333,189.5 94.1667,189.5 98.5,189.5C 98.5,193.833 98.5,198.167 98.5,202.5C 94.1667,202.5 89.8333,202.5 85.5,202.5C 85.5,206.833 85.5,211.167 85.5,215.5C 89.8333,215.5 94.1667,215.5 98.5,215.5C 98.5,219.833 98.5,224.167 98.5,228.5C 89.8333,228.5 81.1667,228.5 72.5,228.5C 72.5,224.167 72.5,219.833 72.5,215.5C 67.8333,215.5 63.1667,215.5 58.5,215.5C 58.5,219.833 58.5,224.167 58.5,228.5C 49.8333,228.5 41.1667,228.5 32.5,228.5C 32.5,219.833 32.5,211.167 32.5,202.5C 36.8333,202.5 41.1667,202.5 45.5,202.5C 45.5,198.167 45.5,193.833 45.5,189.5C 54.5,189.5 63.5,189.5 72.5,189.5C 72.5,185.167 72.5,180.833 72.5,176.5C 67.8333,176.5 63.1667,176.5 58.5,176.5C 58.5,172.167 58.5,167.833 58.5,163.5C 49.8333,163.5 41.1667,163.5 32.5,163.5C 32.5,172.167 32.5,180.833 32.5,189.5C 28.1667,189.5 23.8333,189.5 19.5,189.5C 19.5,193.833 19.5,198.167 19.5,202.5C 15.1667,202.5 10.8333,202.5 6.5,202.5C 6.5,189.5 6.5,176.5 6.5,163.5C 10.8333,163.5 15.1667,163.5 19.5,163.5C 19.5,159.167 19.5,154.833 19.5,150.5C 36.8333,150.5 54.1667,150.5 71.5,150.5C 71.5,154.833 71.5,159.167 71.5,163.5C 84.8333,163.5 98.1667,163.5 111.5,163.5C 111.5,159.167 111.5,154.833 111.5,150.5C 102.833,150.5 94.1667,150.5 85.5,150.5C 85.5,146.167 85.5,141.833 85.5,137.5C 94.1667,137.5 102.833,137.5 111.5,137.5C 111.5,128.833 111.5,120.167 111.5,111.5C 115.833,111.5 120.167,111.5 124.5,111.5C 124.5,107.167 124.5,102.833 124.5,98.5C 128.833,98.5 133.167,98.5 137.5,98.5C 137.5,94.1667 137.5,89.8333 137.5,85.5C 133.366,84.5151 129.032,84.1818 124.5,84.5C 124.5,80.5 124.5,76.5 124.5,72.5C 129.032,72.8182 133.366,72.4849 137.5,71.5C 137.5,67.5 137.5,63.5 137.5,59.5C 141.833,59.5 146.167,59.5 150.5,59.5C 150.5,63.8333 150.5,68.1667 150.5,72.5C 172.167,72.5 193.833,72.5 215.5,72.5C 215.5,68.1667 215.5,63.8333 215.5,59.5C 224.349,59.8264 233.016,59.493 241.5,58.5C 241.5,49.8333 241.5,41.1667 241.5,32.5 Z"/></g>
<g><path style="opacity:1" fill="#010101" d="M 476.5,32.5 C 489.5,32.5 502.5,32.5 515.5,32.5C 515.5,45.5 515.5,58.5 515.5,71.5C 502.5,71.5 489.5,71.5 476.5,71.5C 476.5,58.5 476.5,45.5 476.5,32.5 Z"/></g>
<g><path style="opacity:1" fill="#4b4b4b" d="M 71.5,71.5 C 58.6774,72.4955 45.6774,72.8288 32.5,72.5C 32.5,59.1667 32.5,45.8333 32.5,32.5C 45.8333,32.5 59.1667,32.5 72.5,32.5C 72.8288,45.6774 72.4955,58.6774 71.5,71.5 Z"/></g>
<g><path style="opacity:1" fill="#000000" d="M 71.5,71.5 C 58.8333,71.5 46.1667,71.5 33.5,71.5C 33.5,58.8333 33.5,46.1667 33.5,33.5C 46.1667,33.5 58.8333,33.5 71.5,33.5C 71.5,46.1667 71.5,58.8333 71.5,71.5 Z"/></g>
<g><path style="opacity:1" fill="#e5e5e5" d="M 137.5,45.5 C 141.833,45.5 146.167,45.5 150.5,45.5C 150.5,49.8333 150.5,54.1667 150.5,58.5C 154.833,58.5 159.167,58.5 163.5,58.5C 159.366,59.4849 155.032,59.8182 150.5,59.5C 146.167,59.5 141.833,59.5 137.5,59.5C 133.167,59.5 128.833,59.5 124.5,59.5C 128.634,58.5151 132.968,58.1818 137.5,58.5C 137.5,54.1667 137.5,49.8333 137.5,45.5 Z"/></g>
<g><path style="opacity:1" fill="#f6f6f6" d="M 202.5,45.5 C 202.5,50.1667 202.5,54.8333 202.5,59.5C 206.833,59.5 211.167,59.5 215.5,59.5C 215.5,63.8333 215.5,68.1667 215.5,72.5C 193.833,72.5 172.167,72.5 150.5,72.5C 150.5,68.1667 150.5,63.8333 150.5,59.5C 155.032,59.8182 159.366,59.4849 163.5,58.5C 163.5,54.1667 163.5,49.8333 163.5,45.5C 176.5,45.5 189.5,45.5 202.5,45.5 Z"/></g>
<g><path style="opacity:1" fill="#1a1a1a" d="M 202.5,45.5 C 206.833,45.5 211.167,45.5 215.5,45.5C 215.5,49.8333 215.5,54.1667 215.5,58.5C 224.167,58.5 232.833,58.5 241.5,58.5C 233.016,59.493 224.349,59.8264 215.5,59.5C 211.167,59.5 206.833,59.5 202.5,59.5C 202.5,54.8333 202.5,50.1667 202.5,45.5 Z"/></g>
<g><path style="opacity:1" fill="#0a0a0a" d="M 293.5,45.5 C 297.833,45.5 302.167,45.5 306.5,45.5C 306.5,49.8333 306.5,54.1667 306.5,58.5C 302.167,58.5 297.833,58.5 293.5,58.5C 293.5,54.1667 293.5,49.8333 293.5,45.5 Z"/></g>
<g><path style="opacity:1" fill="#fefefe" d="M 124.5,59.5 C 128.833,59.5 133.167,59.5 137.5,59.5C 137.5,63.5 137.5,67.5 137.5,71.5C 133.167,71.5 128.833,71.5 124.5,71.5C 124.5,67.5 124.5,63.5 124.5,59.5 Z"/></g>
<g><path style="opacity:1" fill="#f9f9f9" d="M 359.5,98.5 C 359.5,89.8333 359.5,81.1667 359.5,72.5C 364.032,72.8182 368.366,72.4849 372.5,71.5C 372.5,67.1667 372.5,62.8333 372.5,58.5C 381.167,58.5 389.833,58.5 398.5,58.5C 398.5,71.8333 398.5,85.1667 398.5,98.5C 394.167,98.5 389.833,98.5 385.5,98.5C 385.5,94.1667 385.5,89.8333 385.5,85.5C 381.167,85.5 376.833,85.5 372.5,85.5C 372.5,89.8333 372.5,94.1667 372.5,98.5C 368.167,98.5 363.833,98.5 359.5,98.5 Z"/></g>
<g><path style="opacity:1" fill="#808080" d="M 345.5,6.5 C 346.485,10.6344 346.818,14.9677 346.5,19.5C 346.5,23.8333 346.5,28.1667 346.5,32.5C 346.5,45.5 346.5,58.5 346.5,71.5C 350.5,71.5 354.5,71.5 358.5,71.5C 358.174,62.6506 358.507,53.9839 359.5,45.5C 359.5,54.1667 359.5,62.8333 359.5,71.5C 363.833,71.5 368.167,71.5 372.5,71.5C 368.366,72.4849 364.032,72.8182 359.5,72.5C 359.5,81.1667 359.5,89.8333 359.5,98.5C 358.507,90.0161 358.174,81.3494 358.5,72.5C 354.5,72.5 350.5,72.5 346.5,72.5C 346.5,89.8333 346.5,107.167 346.5,124.5C 346.5,128.833 346.5,133.167 346.5,137.5C 346.818,142.032 346.485,146.366 345.5,150.5C 345.5,146.167 345.5,141.833 345.5,137.5C 345.5,133.167 345.5,128.833 345.5,124.5C 345.5,107.167 345.5,89.8333 345.5,72.5C 341.5,72.5 337.5,72.5 333.5,72.5C 333.829,85.6774 333.495,98.6774 332.5,111.5C 332.5,98.1667 332.5,84.8333 332.5,71.5C 336.833,71.5 341.167,71.5 345.5,71.5C 345.5,58.5 345.5,45.5 345.5,32.5C 345.5,28.1667 345.5,23.8333 345.5,19.5C 345.5,15.1667 345.5,10.8333 345.5,6.5 Z"/></g>
<g><path style="opacity:1" fill="#f7f7f7" d="M 241.5,98.5 C 237.167,98.5 232.833,98.5 228.5,98.5C 228.5,89.5 228.5,80.5 228.5,71.5C 232.833,71.5 237.167,71.5 241.5,71.5C 241.5,80.5 241.5,89.5 241.5,98.5 Z"/></g>
<g><path style="opacity:1" fill="#000000" d="M 306.5,97.5 C 302.5,97.5 298.5,97.5 294.5,97.5C 294.817,93.2984 294.483,89.2984 293.5,85.5C 289.366,84.5151 285.032,84.1818 280.5,84.5C 280.5,80.5 280.5,76.5 280.5,72.5C 289.167,72.5 297.833,72.5 306.5,72.5C 306.5,80.8333 306.5,89.1667 306.5,97.5 Z"/></g>
<g><path style="opacity:1" fill="#9a9a9a" d="M 84.5,19.5 C 85.4974,41.327 85.8307,63.327 85.5,85.5C 63.327,85.8307 41.327,85.4974 19.5,84.5C 41.1667,84.5 62.8333,84.5 84.5,84.5C 84.5,62.8333 84.5,41.1667 84.5,19.5 Z"/></g>
<g><path style="opacity:1" fill="#171717" d="M 124.5,84.5 C 129.032,84.1818 133.366,84.5151 137.5,85.5C 133.167,85.5 128.833,85.5 124.5,85.5C 124.5,89.8333 124.5,94.1667 124.5,98.5C 120.167,98.5 115.833,98.5 111.5,98.5C 111.5,93.8333 111.5,89.1667 111.5,84.5C 115.833,84.5 120.167,84.5 124.5,84.5 Z"/></g>
<g><path style="opacity:1" fill="#f9f9f9" d="M 137.5,85.5 C 137.5,89.8333 137.5,94.1667 137.5,98.5C 133.167,98.5 128.833,98.5 124.5,98.5C 124.5,94.1667 124.5,89.8333 124.5,85.5C 128.833,85.5 133.167,85.5 137.5,85.5 Z"/></g>
<g><path style="opacity:1" fill="#f9f9f9" d="M 163.5,98.5 C 159.167,98.5 154.833,98.5 150.5,98.5C 150.5,94.1667 150.5,89.8333 150.5,85.5C 154.833,85.5 159.167,85.5 163.5,85.5C 163.5,89.8333 163.5,94.1667 163.5,98.5 Z"/></g>
<g><path style="opacity:1" fill="#fcfcfc" d="M 202.5,98.5 C 202.5,102.833 202.5,107.167 202.5,111.5C 189.5,111.5 176.5,111.5 163.5,111.5C 163.5,107.167 163.5,102.833 163.5,98.5C 167.833,98.5 172.167,98.5 176.5,98.5C 176.5,94.1667 176.5,89.8333 176.5,85.5C 180.833,85.5 185.167,85.5 189.5,85.5C 189.5,89.8333 189.5,94.1667 189.5,98.5C 193.833,98.5 198.167,98.5 202.5,98.5 Z"/></g>
<g><path style="opacity:1" fill="#f9f9f9" d="M 202.5,98.5 C 202.5,94.1667 202.5,89.8333 202.5,85.5C 206.833,85.5 211.167,85.5 215.5,85.5C 215.5,89.8333 215.5,94.1667 215.5,98.5C 211.167,98.5 206.833,98.5 202.5,98.5 Z"/></g>
<g><path style="opacity:1" fill="#171717" d="M 280.5,84.5 C 285.032,84.1818 289.366,84.5151 293.5,85.5C 289.167,85.5 284.833,85.5 280.5,85.5C 280.5,89.8333 280.5,94.1667 280.5,98.5C 276.167,98.5 271.833,98.5 267.5,98.5C 267.5,93.8333 267.5,89.1667 267.5,84.5C 271.833,84.5 276.167,84.5 280.5,84.5 Z"/></g>
<g><path style="opacity:1" fill="#ebebeb" d="M 424.5,84.5 C 429.032,84.1818 433.366,84.5151 437.5,85.5C 433.167,85.5 428.833,85.5 424.5,85.5C 424.5,89.8333 424.5,94.1667 424.5,98.5C 420.167,98.5 415.833,98.5 411.5,98.5C 411.5,93.8333 411.5,89.1667 411.5,84.5C 415.833,84.5 420.167,84.5 424.5,84.5 Z"/></g>
<g><path style="opacity:1" fill="#080808" d="M 437.5,85.5 C 437.5,89.8333 437.5,94.1667 437.5,98.5C 433.167,98.5 428.833,98.5 424.5,98.5C 424.5,94.1667 424.5,89.8333 424.5,85.5C 428.833,85.5 433.167,85.5 437.5,85.5 Z"/></g>
<g><path style="opacity:1" fill="#474747" d="M 97.5,6.5 C 98.4981,36.9955 98.8315,67.6621 98.5,98.5C 67.6621,98.8315 36.9955,98.4981 6.5,97.5C 36.8333,97.5 67.1667,97.5 97.5,97.5C 97.5,67.1667 97.5,36.8333 97.5,6.5 Z"/></g>
<g><path style="opacity:1" fill="#3e3e3e" d="M 293.5,85.5 C 294.483,89.2984 294.817,93.2984 294.5,97.5C 298.5,97.5 302.5,97.5 306.5,97.5C 302.366,98.4849 298.032,98.8182 293.5,98.5C 293.5,94.1667 293.5,89.8333 293.5,85.5 Z"/></g>
<g><path style="opacity:1" fill="#050505" d="M 254.5,98.5 C 258.833,98.5 263.167,98.5 267.5,98.5C 267.5,102.833 267.5,107.167 267.5,111.5C 263.167,111.5 258.833,111.5 254.5,111.5C 254.5,107.167 254.5,102.833 254.5,98.5 Z"/></g>
<g><path style="opacity:1" fill="#020202" d="M 6.5,111.5 C 23.8333,111.5 41.1667,111.5 58.5,111.5C 58.5,115.833 58.5,120.167 58.5,124.5C 62.8333,124.5 67.1667,124.5 71.5,124.5C 71.5,128.833 71.5,133.167 71.5,137.5C 62.8333,137.5 54.1667,137.5 45.5,137.5C 45.5,133.167 45.5,128.833 45.5,124.5C 32.5,124.5 19.5,124.5 6.5,124.5C 6.5,120.167 6.5,115.833 6.5,111.5 Z"/></g>
<g><path style="opacity:1" fill="#060606" d="M 85.5,111.5 C 89.8333,111.5 94.1667,111.5 98.5,111.5C 98.5,115.833 98.5,120.167 98.5,124.5C 94.1667,124.5 89.8333,124.5 85.5,124.5C 85.5,120.167 85.5,115.833 85.5,111.5 Z"/></g>
<g><path style="opacity:1" fill="#fefefe" d="M 124.5,111.5 C 133.167,111.5 141.833,111.5 150.5,111.5C 150.5,120.167 150.5,128.833 150.5,137.5C 146.167,137.5 141.833,137.5 137.5,137.5C 137.5,141.833 137.5,146.167 137.5,150.5C 133.167,150.5 128.833,150.5 124.5,150.5C 124.5,137.5 124.5,124.5 124.5,111.5 Z"/></g>
<g><path style="opacity:1" fill="#fefefe" d="M 228.5,137.5 C 224.167,137.5 219.833,137.5 215.5,137.5C 215.5,146.167 215.5,154.833 215.5,163.5C 206.833,163.5 198.167,163.5 189.5,163.5C 189.5,172.167 189.5,180.833 189.5,189.5C 180.833,189.5 172.167,189.5 163.5,189.5C 163.5,185.167 163.5,180.833 163.5,176.5C 159.167,176.5 154.833,176.5 150.5,176.5C 150.5,167.833 150.5,159.167 150.5,150.5C 163.5,150.5 176.5,150.5 189.5,150.5C 189.5,141.833 189.5,133.167 189.5,124.5C 198.167,124.5 206.833,124.5 215.5,124.5C 215.5,120.167 215.5,115.833 215.5,111.5C 219.833,111.5 224.167,111.5 228.5,111.5C 228.5,120.167 228.5,128.833 228.5,137.5 Z"/></g>
<g><path style="opacity:1" fill="#010101" d="M 345.5,124.5 C 345.5,128.833 345.5,133.167 345.5,137.5C 341.5,137.5 337.5,137.5 333.5,137.5C 332.515,141.634 332.182,145.968 332.5,150.5C 323.833,150.5 315.167,150.5 306.5,150.5C 306.5,154.833 306.5,159.167 306.5,163.5C 302.167,163.5 297.833,163.5 293.5,163.5C 293.5,159.167 293.5,154.833 293.5,150.5C 289.167,150.5 284.833,150.5 280.5,150.5C 280.5,146.167 280.5,141.833 280.5,137.5C 284.833,137.5 289.167,137.5 293.5,137.5C 293.5,133.167 293.5,128.833 293.5,124.5C 289.167,124.5 284.833,124.5 280.5,124.5C 280.5,120.167 280.5,115.833 280.5,111.5C 289.167,111.5 297.833,111.5 306.5,111.5C 306.5,115.833 306.5,120.167 306.5,124.5C 319.5,124.5 332.5,124.5 345.5,124.5 Z"/></g>
<g><path style="opacity:1" fill="#fdfdfd" d="M 385.5,150.5 C 376.833,150.5 368.167,150.5 359.5,150.5C 359.5,146.167 359.5,141.833 359.5,137.5C 355.167,137.5 350.833,137.5 346.5,137.5C 346.5,133.167 346.5,128.833 346.5,124.5C 350.833,124.5 355.167,124.5 359.5,124.5C 359.5,120.167 359.5,115.833 359.5,111.5C 363.833,111.5 368.167,111.5 372.5,111.5C 372.5,120.167 372.5,128.833 372.5,137.5C 376.833,137.5 381.167,137.5 385.5,137.5C 385.5,141.833 385.5,146.167 385.5,150.5 Z"/></g>
<g><path style="opacity:1" fill="#000000" d="M 515.5,124.5 C 506.833,124.5 498.167,124.5 489.5,124.5C 489.5,137.5 489.5,150.5 489.5,163.5C 485.167,163.5 480.833,163.5 476.5,163.5C 476.5,159.167 476.5,154.833 476.5,150.5C 472.167,150.5 467.833,150.5 463.5,150.5C 463.5,146.167 463.5,141.833 463.5,137.5C 467.833,137.5 472.167,137.5 476.5,137.5C 476.5,128.833 476.5,120.167 476.5,111.5C 489.5,111.5 502.5,111.5 515.5,111.5C 515.5,115.833 515.5,120.167 515.5,124.5 Z"/></g>
<g><path style="opacity:1" fill="#000000" d="M 515.5,137.5 C 515.5,133.167 515.5,128.833 515.5,124.5C 519.833,124.5 524.167,124.5 528.5,124.5C 528.5,120.167 528.5,115.833 528.5,111.5C 532.833,111.5 537.167,111.5 541.5,111.5C 541.5,120.167 541.5,128.833 541.5,137.5C 532.833,137.5 524.167,137.5 515.5,137.5 Z"/></g>
<g><path style="opacity:1" fill="#000000" d="M 280.5,124.5 C 280.5,128.833 280.5,133.167 280.5,137.5C 276.167,137.5 271.833,137.5 267.5,137.5C 267.5,133.167 267.5,128.833 267.5,124.5C 271.833,124.5 276.167,124.5 280.5,124.5 Z"/></g>
<g><path style="opacity:1" fill="#fdfdfd" d="M 280.5,124.5 C 284.833,124.5 289.167,124.5 293.5,124.5C 293.5,128.833 293.5,133.167 293.5,137.5C 289.167,137.5 284.833,137.5 280.5,137.5C 280.5,133.167 280.5,128.833 280.5,124.5 Z"/></g>
<g><path style="opacity:1" fill="#000000" d="M 19.5,150.5 C 15.1667,150.5 10.8333,150.5 6.5,150.5C 6.5,146.167 6.5,141.833 6.5,137.5C 10.8333,137.5 15.1667,137.5 19.5,137.5C 19.5,141.833 19.5,146.167 19.5,150.5 Z"/></g>
<g><path style="opacity:1" fill="#000000" d="M 228.5,137.5 C 232.833,137.5 237.167,137.5 241.5,137.5C 241.5,141.833 241.5,146.167 241.5,150.5C 241.5,154.833 241.5,159.167 241.5,163.5C 237.167,163.5 232.833,163.5 228.5,163.5C 228.5,167.833 228.5,172.167 228.5,176.5C 219.833,176.5 211.167,176.5 202.5,176.5C 202.5,185.167 202.5,193.833 202.5,202.5C 206.833,202.5 211.167,202.5 215.5,202.5C 215.5,206.833 215.5,211.167 215.5,215.5C 206.833,215.5 198.167,215.5 189.5,215.5C 189.5,211.167 189.5,206.833 189.5,202.5C 185.167,202.5 180.833,202.5 176.5,202.5C 176.5,211.167 176.5,219.833 176.5,228.5C 172.167,228.5 167.833,228.5 163.5,228.5C 163.5,232.833 163.5,237.167 163.5,241.5C 159.167,241.5 154.833,241.5 150.5,241.5C 150.5,232.833 150.5,224.167 150.5,215.5C 154.833,215.5 159.167,215.5 163.5,215.5C 163.5,206.833 163.5,198.167 163.5,189.5C 172.167,189.5 180.833,189.5 189.5,189.5C 189.5,180.833 189.5,172.167 189.5,163.5C 198.167,163.5 206.833,163.5 215.5,163.5C 215.5,154.833 215.5,146.167 215.5,137.5C 219.833,137.5 224.167,137.5 228.5,137.5 Z"/></g>
<g><path style="opacity:1" fill="#fefefe" d="M 228.5,137.5 C 232.833,137.5 237.167,137.5 241.5,137.5C 241.5,141.833 241.5,146.167 241.5,150.5C 237.167,150.5 232.833,150.5 228.5,150.5C 228.5,146.167 228.5,141.833 228.5,137.5 Z"/></g>
<g><path style="opacity:1" fill="#fefefe" d="M 333.5,137.5 C 337.5,137.5 341.5,137.5 345.5,137.5C 345.5,141.833 345.5,146.167 345.5,150.5C 341.5,150.5 337.5,150.5 333.5,150.5C 333.5,146.167 333.5,141.833 333.5,137.5 Z"/></g>
<g><path style="opacity:1" fill="#fefefe" d="M 463.5,137.5 C 463.5,141.833 463.5,146.167 463.5,150.5C 450.5,150.5 437.5,150.5 424.5,150.5C 424.5,154.833 424.5,159.167 424.5,163.5C 420.167,163.5 415.833,163.5 411.5,163.5C 411.5,154.833 411.5,146.167 411.5,137.5C 428.833,137.5 446.167,137.5 463.5,137.5 Z"/></g>
<g><path style="opacity:1" fill="#000000" d="M 515.5,137.5 C 515.5,141.833 515.5,146.167 515.5,150.5C 511.167,150.5 506.833,150.5 502.5,150.5C 502.5,146.167 502.5,141.833 502.5,137.5C 506.833,137.5 511.167,137.5 515.5,137.5 Z"/></g>
<g><path style="opacity:1" fill="#fefefe" d="M 241.5,150.5 C 245.833,150.5 250.167,150.5 254.5,150.5C 254.5,154.833 254.5,159.167 254.5,163.5C 258.833,163.5 263.167,163.5 267.5,163.5C 267.5,172.167 267.5,180.833 267.5,189.5C 258.833,189.5 250.167,189.5 241.5,189.5C 241.5,185.167 241.5,180.833 241.5,176.5C 237.167,176.5 232.833,176.5 228.5,176.5C 228.5,172.167 228.5,167.833 228.5,163.5C 232.833,163.5 237.167,163.5 241.5,163.5C 241.5,159.167 241.5,154.833 241.5,150.5 Z"/></g>
<g><path style="opacity:1" fill="#000000" d="M 254.5,150.5 C 263.167,150.5 271.833,150.5 280.5,150.5C 280.5,167.833 280.5,185.167 280.5,202.5C 267.5,202.5 254.5,202.5 241.5,202.5C 241.5,198.167 241.5,193.833 241.5,189.5C 250.167,189.5 258.833,189.5 267.5,189.5C 267.5,180.833 267.5,172.167 267.5,163.5C 263.167,163.5 258.833,163.5 254.5,163.5C 254.5,159.167 254.5,154.833 254.5,150.5 Z"/></g>
<g><path style="opacity:1" fill="#fdfdfd" d="M 280.5,150.5 C 284.833,150.5 289.167,150.5 293.5,150.5C 293.5,154.833 293.5,159.167 293.5,163.5C 297.833,163.5 302.167,163.5 306.5,163.5C 306.5,167.833 306.5,172.167 306.5,176.5C 310.833,176.5 315.167,176.5 319.5,176.5C 319.5,193.833 319.5,211.167 319.5,228.5C 310.833,228.5 302.167,228.5 293.5,228.5C 293.5,219.833 293.5,211.167 293.5,202.5C 289.167,202.5 284.833,202.5 280.5,202.5C 280.5,185.167 280.5,167.833 280.5,150.5 Z"/></g>
<g><path style="opacity:1" fill="#f3f3f3" d="M 333.5,137.5 C 333.5,141.833 333.5,146.167 333.5,150.5C 333.5,154.833 333.5,159.167 333.5,163.5C 324.5,163.5 315.5,163.5 306.5,163.5C 306.5,159.167 306.5,154.833 306.5,150.5C 315.167,150.5 323.833,150.5 332.5,150.5C 332.182,145.968 332.515,141.634 333.5,137.5 Z"/></g>
<g><path style="opacity:1" fill="#fefefe" d="M 385.5,150.5 C 389.833,150.5 394.167,150.5 398.5,150.5C 398.5,154.833 398.5,159.167 398.5,163.5C 394.167,163.5 389.833,163.5 385.5,163.5C 385.5,159.167 385.5,154.833 385.5,150.5 Z"/></g>
<g><path style="opacity:1" fill="#000000" d="M 463.5,150.5 C 463.5,154.833 463.5,159.167 463.5,163.5C 450.5,163.5 437.5,163.5 424.5,163.5C 424.5,159.167 424.5,154.833 424.5,150.5C 437.5,150.5 450.5,150.5 463.5,150.5 Z"/></g>
<g><path style="opacity:1" fill="#000000" d="M 528.5,150.5 C 532.833,150.5 537.167,150.5 541.5,150.5C 541.5,154.833 541.5,159.167 541.5,163.5C 537.167,163.5 532.833,163.5 528.5,163.5C 528.5,159.167 528.5,154.833 528.5,150.5 Z"/></g>
<g><path style="opacity:1" fill="#fefefe" d="M 124.5,163.5 C 128.833,163.5 133.167,163.5 137.5,163.5C 137.5,172.167 137.5,180.833 137.5,189.5C 133.167,189.5 128.833,189.5 124.5,189.5C 124.5,180.833 124.5,172.167 124.5,163.5 Z"/></g>
<g><path style="opacity:1" fill="#000000" d="M 489.5,189.5 C 489.5,185.167 489.5,180.833 489.5,176.5C 493.833,176.5 498.167,176.5 502.5,176.5C 502.5,172.167 502.5,167.833 502.5,163.5C 506.833,163.5 511.167,163.5 515.5,163.5C 515.5,167.833 515.5,172.167 515.5,176.5C 524.167,176.5 532.833,176.5 541.5,176.5C 541.5,185.167 541.5,193.833 541.5,202.5C 532.833,202.5 524.167,202.5 515.5,202.5C 515.5,198.167 515.5,193.833 515.5,189.5C 506.833,189.5 498.167,189.5 489.5,189.5 Z"/></g>
<g><path style="opacity:1" fill="#fcfcfc" d="M 111.5,228.5 C 107.167,228.5 102.833,228.5 98.5,228.5C 98.5,224.167 98.5,219.833 98.5,215.5C 94.1667,215.5 89.8333,215.5 85.5,215.5C 85.5,211.167 85.5,206.833 85.5,202.5C 89.8333,202.5 94.1667,202.5 98.5,202.5C 98.5,198.167 98.5,193.833 98.5,189.5C 94.1667,189.5 89.8333,189.5 85.5,189.5C 85.5,185.167 85.5,180.833 85.5,176.5C 94.1667,176.5 102.833,176.5 111.5,176.5C 111.5,193.833 111.5,211.167 111.5,228.5 Z"/></g>
<g><path style="opacity:1" fill="#fefefe" d="M 228.5,176.5 C 232.833,176.5 237.167,176.5 241.5,176.5C 241.5,180.833 241.5,185.167 241.5,189.5C 241.5,193.833 241.5,198.167 241.5,202.5C 254.5,202.5 267.5,202.5 280.5,202.5C 280.5,206.833 280.5,211.167 280.5,215.5C 276.167,215.5 271.833,215.5 267.5,215.5C 267.5,219.833 267.5,224.167 267.5,228.5C 271.833,228.5 276.167,228.5 280.5,228.5C 280.5,232.833 280.5,237.167 280.5,241.5C 276.167,241.5 271.833,241.5 267.5,241.5C 267.5,250.167 267.5,258.833 267.5,267.5C 271.833,267.5 276.167,267.5 280.5,267.5C 280.5,271.833 280.5,276.167 280.5,280.5C 276.167,280.5 271.833,280.5 267.5,280.5C 267.5,284.833 267.5,289.167 267.5,293.5C 254.5,293.5 241.5,293.5 228.5,293.5C 228.5,284.833 228.5,276.167 228.5,267.5C 237.167,267.5 245.833,267.5 254.5,267.5C 254.5,258.833 254.5,250.167 254.5,241.5C 250.167,241.5 245.833,241.5 241.5,241.5C 241.5,245.833 241.5,250.167 241.5,254.5C 237.167,254.5 232.833,254.5 228.5,254.5C 228.5,250.167 228.5,245.833 228.5,241.5C 219.833,241.5 211.167,241.5 202.5,241.5C 202.5,245.833 202.5,250.167 202.5,254.5C 206.833,254.5 211.167,254.5 215.5,254.5C 215.5,263.167 215.5,271.833 215.5,280.5C 206.833,280.5 198.167,280.5 189.5,280.5C 189.5,284.833 189.5,289.167 189.5,293.5C 185.167,293.5 180.833,293.5 176.5,293.5C 176.5,297.833 176.5,302.167 176.5,306.5C 167.833,306.5 159.167,306.5 150.5,306.5C 150.5,310.833 150.5,315.167 150.5,319.5C 146.167,319.5 141.833,319.5 137.5,319.5C 137.5,323.833 137.5,328.167 137.5,332.5C 133.167,332.5 128.833,332.5 124.5,332.5C 124.5,328.167 124.5,323.833 124.5,319.5C 120.167,319.5 115.833,319.5 111.5,319.5C 111.5,315.167 111.5,310.833 111.5,306.5C 115.833,306.5 120.167,306.5 124.5,306.5C 124.5,302.167 124.5,297.833 124.5,293.5C 133.167,293.5 141.833,293.5 150.5,293.5C 150.5,289.167 150.5,284.833 150.5,280.5C 154.833,280.5 159.167,280.5 163.5,280.5C 163.5,271.833 163.5,263.167 163.5,254.5C 167.833,254.5 172.167,254.5 176.5,254.5C 176.5,250.167 176.5,245.833 176.5,241.5C 180.833,241.5 185.167,241.5 189.5,241.5C 189.5,237.167 189.5,232.833 189.5,228.5C 185.167,228.5 180.833,228.5 176.5,228.5C 176.5,219.833 176.5,211.167 176.5,202.5C 180.833,202.5 185.167,202.5 189.5,202.5C 189.5,206.833 189.5,211.167 189.5,215.5C 198.167,215.5 206.833,215.5 215.5,215.5C 215.5,211.167 215.5,206.833 215.5,202.5C 211.167,202.5 206.833,202.5 202.5,202.5C 202.5,193.833 202.5,185.167 202.5,176.5C 211.167,176.5 219.833,176.5 228.5,176.5 Z"/></g>
<g><path style="opacity:1" fill="#000000" d="M 228.5,176.5 C 232.833,176.5 237.167,176.5 241.5,176.5C 241.5,180.833 241.5,185.167 241.5,189.5C 237.167,189.5 232.833,189.5 228.5,189.5C 228.5,185.167 228.5,180.833 228.5,176.5 Z"/></g>
<g><path style="opacity:1" fill="#040404" d="M 306.5,176.5 C 306.5,180.833 306.5,185.167 306.5,189.5C 302.167,189.5 297.833,189.5 293.5,189.5C 293.5,185.167 293.5,180.833 293.5,176.5C 297.833,176.5 302.167,176.5 306.5,176.5 Z"/></g>
<g><path style="opacity:1" fill="#fefefe" d="M 372.5,189.5 C 372.5,185.167 372.5,180.833 372.5,176.5C 381.167,176.5 389.833,176.5 398.5,176.5C 398.5,180.833 398.5,185.167 398.5,189.5C 389.833,189.5 381.167,189.5 372.5,189.5 Z"/></g>
<g><path style="opacity:1" fill="#000000" d="M 450.5,189.5 C 450.5,185.167 450.5,180.833 450.5,176.5C 454.833,176.5 459.167,176.5 463.5,176.5C 463.5,180.833 463.5,185.167 463.5,189.5C 459.167,189.5 454.833,189.5 450.5,189.5 Z"/></g>
<g><path style="opacity:1" fill="#fefefe" d="M 163.5,189.5 C 163.5,198.167 163.5,206.833 163.5,215.5C 159.167,215.5 154.833,215.5 150.5,215.5C 150.5,224.167 150.5,232.833 150.5,241.5C 154.833,241.5 159.167,241.5 163.5,241.5C 163.5,245.833 163.5,250.167 163.5,254.5C 159.167,254.5 154.833,254.5 150.5,254.5C 150.5,263.167 150.5,271.833 150.5,280.5C 146.167,280.5 141.833,280.5 137.5,280.5C 137.5,254.5 137.5,228.5 137.5,202.5C 141.833,202.5 146.167,202.5 150.5,202.5C 150.5,198.167 150.5,193.833 150.5,189.5C 154.833,189.5 159.167,189.5 163.5,189.5 Z"/></g>
<g><path style="opacity:1" fill="#000000" d="M 450.5,189.5 C 450.5,193.833 450.5,198.167 450.5,202.5C 446.167,202.5 441.833,202.5 437.5,202.5C 437.5,198.167 437.5,193.833 437.5,189.5C 441.833,189.5 446.167,189.5 450.5,189.5 Z"/></g>
<g><path style="opacity:1" fill="#000000" d="M 489.5,189.5 C 489.5,198.167 489.5,206.833 489.5,215.5C 493.833,215.5 498.167,215.5 502.5,215.5C 502.5,219.833 502.5,224.167 502.5,228.5C 493.833,228.5 485.167,228.5 476.5,228.5C 476.5,224.167 476.5,219.833 476.5,215.5C 467.833,215.5 459.167,215.5 450.5,215.5C 450.5,211.167 450.5,206.833 450.5,202.5C 459.167,202.5 467.833,202.5 476.5,202.5C 476.5,198.167 476.5,193.833 476.5,189.5C 480.833,189.5 485.167,189.5 489.5,189.5 Z"/></g>
<g><path style="opacity:1" fill="#000000" d="M 280.5,202.5 C 284.833,202.5 289.167,202.5 293.5,202.5C 293.5,211.167 293.5,219.833 293.5,228.5C 302.167,228.5 310.833,228.5 319.5,228.5C 319.5,232.833 319.5,237.167 319.5,241.5C 315.167,241.5 310.833,241.5 306.5,241.5C 306.5,250.167 306.5,258.833 306.5,267.5C 302.167,267.5 297.833,267.5 293.5,267.5C 293.5,263.167 293.5,258.833 293.5,254.5C 289.167,254.5 284.833,254.5 280.5,254.5C 280.5,258.833 280.5,263.167 280.5,267.5C 276.167,267.5 271.833,267.5 267.5,267.5C 267.5,258.833 267.5,250.167 267.5,241.5C 271.833,241.5 276.167,241.5 280.5,241.5C 280.5,237.167 280.5,232.833 280.5,228.5C 276.167,228.5 271.833,228.5 267.5,228.5C 267.5,224.167 267.5,219.833 267.5,215.5C 271.833,215.5 276.167,215.5 280.5,215.5C 280.5,211.167 280.5,206.833 280.5,202.5 Z"/></g>
<g><path style="opacity:1" fill="#000000" d="M 424.5,202.5 C 428.833,202.5 433.167,202.5 437.5,202.5C 437.5,206.833 437.5,211.167 437.5,215.5C 433.167,215.5 428.833,215.5 424.5,215.5C 424.5,211.167 424.5,206.833 424.5,202.5 Z"/></g>
<g><path style="opacity:1" fill="#000000" d="M 19.5,228.5 C 15.1667,228.5 10.8333,228.5 6.5,228.5C 6.5,224.167 6.5,219.833 6.5,215.5C 10.8333,215.5 15.1667,215.5 19.5,215.5C 19.5,219.833 19.5,224.167 19.5,228.5 Z"/></g>
<g><path style="opacity:1" fill="#fbfbfb" d="M 98.5,228.5 C 98.5,232.833 98.5,237.167 98.5,241.5C 94.1667,241.5 89.8333,241.5 85.5,241.5C 84.5151,245.634 84.1818,249.968 84.5,254.5C 71.5,254.5 58.5,254.5 45.5,254.5C 45.5,250.167 45.5,245.833 45.5,241.5C 41.1667,241.5 36.8333,241.5 32.5,241.5C 32.5,237.167 32.5,232.833 32.5,228.5C 41.1667,228.5 49.8333,228.5 58.5,228.5C 58.5,224.167 58.5,219.833 58.5,215.5C 63.1667,215.5 67.8333,215.5 72.5,215.5C 72.5,219.833 72.5,224.167 72.5,228.5C 81.1667,228.5 89.8333,228.5 98.5,228.5 Z"/></g>
<g><path style="opacity:1" fill="#000000" d="M 228.5,215.5 C 237.167,215.5 245.833,215.5 254.5,215.5C 254.5,219.833 254.5,224.167 254.5,228.5C 245.833,228.5 237.167,228.5 228.5,228.5C 228.5,224.167 228.5,219.833 228.5,215.5 Z"/></g>
<g><path style="opacity:1" fill="#000000" d="M 528.5,228.5 C 524.167,228.5 519.833,228.5 515.5,228.5C 515.5,224.167 515.5,219.833 515.5,215.5C 519.833,215.5 524.167,215.5 528.5,215.5C 528.5,219.833 528.5,224.167 528.5,228.5 Z"/></g>
<g><path style="opacity:1" fill="#010101" d="M 19.5,228.5 C 23.8333,228.5 28.1667,228.5 32.5,228.5C 32.5,232.833 32.5,237.167 32.5,241.5C 28.1667,241.5 23.8333,241.5 19.5,241.5C 19.5,237.167 19.5,232.833 19.5,228.5 Z"/></g>
<g><path style="opacity:1" fill="#030303" d="M 98.5,228.5 C 102.833,228.5 107.167,228.5 111.5,228.5C 111.5,237.167 111.5,245.833 111.5,254.5C 102.833,254.5 94.1667,254.5 85.5,254.5C 85.5,250.167 85.5,245.833 85.5,241.5C 89.8333,241.5 94.1667,241.5 98.5,241.5C 98.5,237.167 98.5,232.833 98.5,228.5 Z"/></g>
<g><path style="opacity:1" fill="#fdfdfd" d="M 111.5,228.5 C 115.833,228.5 120.167,228.5 124.5,228.5C 124.5,237.167 124.5,245.833 124.5,254.5C 120.167,254.5 115.833,254.5 111.5,254.5C 111.5,245.833 111.5,237.167 111.5,228.5 Z"/></g>
<g><path style="opacity:1" fill="#fefefe" d="M 176.5,228.5 C 176.5,232.833 176.5,237.167 176.5,241.5C 172.167,241.5 167.833,241.5 163.5,241.5C 163.5,237.167 163.5,232.833 163.5,228.5C 167.833,228.5 172.167,228.5 176.5,228.5 Z"/></g>
<g><path style="opacity:1" fill="#000000" d="M 176.5,228.5 C 180.833,228.5 185.167,228.5 189.5,228.5C 189.5,232.833 189.5,237.167 189.5,241.5C 185.167,241.5 180.833,241.5 176.5,241.5C 176.5,237.167 176.5,232.833 176.5,228.5 Z"/></g>
<g><path style="opacity:1" fill="#fefefe" d="M 332.5,228.5 C 332.5,232.833 332.5,237.167 332.5,241.5C 328.5,241.5 324.5,241.5 320.5,241.5C 320.5,237.167 320.5,232.833 320.5,228.5C 324.5,228.5 328.5,228.5 332.5,228.5 Z"/></g>
<g><path style="opacity:1" fill="#000000" d="M 528.5,228.5 C 532.833,228.5 537.167,228.5 541.5,228.5C 541.5,232.833 541.5,237.167 541.5,241.5C 537.167,241.5 532.833,241.5 528.5,241.5C 528.5,237.167 528.5,232.833 528.5,228.5 Z"/></g>
<g><path style="opacity:1" fill="#020202" d="M 32.5,241.5 C 36.8333,241.5 41.1667,241.5 45.5,241.5C 45.5,245.833 45.5,250.167 45.5,254.5C 58.5,254.5 71.5,254.5 84.5,254.5C 84.5,258.833 84.5,263.167 84.5,267.5C 75.8333,267.5 67.1667,267.5 58.5,267.5C 58.5,271.833 58.5,276.167 58.5,280.5C 67.1667,280.5 75.8333,280.5 84.5,280.5C 84.5,284.833 84.5,289.167 84.5,293.5C 71.5,293.5 58.5,293.5 45.5,293.5C 45.5,289.167 45.5,284.833 45.5,280.5C 41.1667,280.5 36.8333,280.5 32.5,280.5C 32.5,267.5 32.5,254.5 32.5,241.5 Z"/></g>
<g><path style="opacity:1" fill="#000000" d="M 163.5,241.5 C 167.833,241.5 172.167,241.5 176.5,241.5C 176.5,245.833 176.5,250.167 176.5,254.5C 172.167,254.5 167.833,254.5 163.5,254.5C 163.5,250.167 163.5,245.833 163.5,241.5 Z"/></g>
<g><path style="opacity:1" fill="#020202" d="M 228.5,293.5 C 224.167,293.5 219.833,293.5 215.5,293.5C 215.5,302.167 215.5,310.833 215.5,319.5C 211.167,319.5 206.833,319.5 202.5,319.5C 202.5,315.167 202.5,310.833 202.5,306.5C 198.167,306.5 193.833,306.5 189.5,306.5C 189.5,315.5 189.5,324.5 189.5,333.5C 198.167,333.5 206.833,333.5 215.5,333.5C 215.5,337.5 215.5,341.5 215.5,345.5C 211.167,345.5 206.833,345.5 202.5,345.5C 202.5,350.167 202.5,354.833 202.5,359.5C 198.167,359.5 193.833,359.5 189.5,359.5C 189.5,355.167 189.5,350.833 189.5,346.5C 185.366,345.515 181.032,345.182 176.5,345.5C 176.5,336.833 176.5,328.167 176.5,319.5C 172.167,319.5 167.833,319.5 163.5,319.5C 163.5,323.833 163.5,328.167 163.5,332.5C 154.833,332.5 146.167,332.5 137.5,332.5C 137.5,328.167 137.5,323.833 137.5,319.5C 141.833,319.5 146.167,319.5 150.5,319.5C 150.5,315.167 150.5,310.833 150.5,306.5C 159.167,306.5 167.833,306.5 176.5,306.5C 176.5,302.167 176.5,297.833 176.5,293.5C 180.833,293.5 185.167,293.5 189.5,293.5C 189.5,289.167 189.5,284.833 189.5,280.5C 198.167,280.5 206.833,280.5 215.5,280.5C 215.5,271.833 215.5,263.167 215.5,254.5C 211.167,254.5 206.833,254.5 202.5,254.5C 202.5,250.167 202.5,245.833 202.5,241.5C 211.167,241.5 219.833,241.5 228.5,241.5C 228.5,245.833 228.5,250.167 228.5,254.5C 232.833,254.5 237.167,254.5 241.5,254.5C 241.5,250.167 241.5,245.833 241.5,241.5C 245.833,241.5 250.167,241.5 254.5,241.5C 254.5,250.167 254.5,258.833 254.5,267.5C 245.833,267.5 237.167,267.5 228.5,267.5C 228.5,276.167 228.5,284.833 228.5,293.5 Z"/></g>
<g><path style="opacity:1" fill="#fcfcfc" d="M 332.5,228.5 C 333.485,232.634 333.818,236.968 333.5,241.5C 337.833,241.5 342.167,241.5 346.5,241.5C 346.5,245.833 346.5,250.167 346.5,254.5C 350.833,254.5 355.167,254.5 359.5,254.5C 359.5,258.833 359.5,263.167 359.5,267.5C 368.167,267.5 376.833,267.5 385.5,267.5C 385.5,271.833 385.5,276.167 385.5,280.5C 389.833,280.5 394.167,280.5 398.5,280.5C 398.5,276.167 398.5,271.833 398.5,267.5C 402.833,267.5 407.167,267.5 411.5,267.5C 411.5,276.167 411.5,284.833 411.5,293.5C 398.5,293.5 385.5,293.5 372.5,293.5C 372.5,297.833 372.5,302.167 372.5,306.5C 359.167,306.5 345.833,306.5 332.5,306.5C 332.5,310.833 332.5,315.167 332.5,319.5C 328.5,319.5 324.5,319.5 320.5,319.5C 320.829,306.323 320.495,293.323 319.5,280.5C 310.833,280.5 302.167,280.5 293.5,280.5C 293.5,276.167 293.5,271.833 293.5,267.5C 297.833,267.5 302.167,267.5 306.5,267.5C 306.5,258.833 306.5,250.167 306.5,241.5C 310.833,241.5 315.167,241.5 319.5,241.5C 319.182,246.032 319.515,250.366 320.5,254.5C 324.5,254.5 328.5,254.5 332.5,254.5C 332.5,250.167 332.5,245.833 332.5,241.5C 332.5,237.167 332.5,232.833 332.5,228.5 Z"/></g>
<g><path style="opacity:1" fill="#000000" d="M 320.5,241.5 C 324.5,241.5 328.5,241.5 332.5,241.5C 332.5,245.833 332.5,250.167 332.5,254.5C 328.5,254.5 324.5,254.5 320.5,254.5C 320.5,250.167 320.5,245.833 320.5,241.5 Z"/></g>
<g><path style="opacity:1" fill="#000000" d="M 476.5,267.5 C 472.167,267.5 467.833,267.5 463.5,267.5C 463.5,280.5 463.5,293.5 463.5,306.5C 459.167,306.5 454.833,306.5 450.5,306.5C 450.5,310.833 450.5,315.167 450.5,319.5C 441.833,319.5 433.167,319.5 424.5,319.5C 424.5,310.833 424.5,302.167 424.5,293.5C 420.167,293.5 415.833,293.5 411.5,293.5C 411.5,284.833 411.5,276.167 411.5,267.5C 420.167,267.5 428.833,267.5 437.5,267.5C 437.5,258.833 437.5,250.167 437.5,241.5C 441.833,241.5 446.167,241.5 450.5,241.5C 450.5,245.833 450.5,250.167 450.5,254.5C 454.833,254.5 459.167,254.5 463.5,254.5C 463.5,250.167 463.5,245.833 463.5,241.5C 467.833,241.5 472.167,241.5 476.5,241.5C 476.5,250.167 476.5,258.833 476.5,267.5 Z"/></g>
<g><path style="opacity:1" fill="#010101" d="M 528.5,293.5 C 528.5,306.5 528.5,319.5 528.5,332.5C 524.167,332.5 519.833,332.5 515.5,332.5C 515.5,337.167 515.5,341.833 515.5,346.5C 524.167,346.5 532.833,346.5 541.5,346.5C 541.5,350.833 541.5,355.167 541.5,359.5C 528.5,359.5 515.5,359.5 502.5,359.5C 502.5,376.833 502.5,394.167 502.5,411.5C 506.833,411.5 511.167,411.5 515.5,411.5C 515.5,415.833 515.5,420.167 515.5,424.5C 519.833,424.5 524.167,424.5 528.5,424.5C 528.5,428.833 528.5,433.167 528.5,437.5C 532.833,437.5 537.167,437.5 541.5,437.5C 541.5,441.833 541.5,446.167 541.5,450.5C 532.833,450.5 524.167,450.5 515.5,450.5C 515.5,446.167 515.5,441.833 515.5,437.5C 511.167,437.5 506.833,437.5 502.5,437.5C 502.5,441.833 502.5,446.167 502.5,450.5C 498.167,450.5 493.833,450.5 489.5,450.5C 489.5,463.5 489.5,476.5 489.5,489.5C 493.833,489.5 498.167,489.5 502.5,489.5C 502.5,485.167 502.5,480.833 502.5,476.5C 506.833,476.5 511.167,476.5 515.5,476.5C 515.5,485.167 515.5,493.833 515.5,502.5C 502.5,502.5 489.5,502.5 476.5,502.5C 476.5,511.167 476.5,519.833 476.5,528.5C 472.167,528.5 467.833,528.5 463.5,528.5C 463.5,532.833 463.5,537.167 463.5,541.5C 446.167,541.5 428.833,541.5 411.5,541.5C 411.5,537.167 411.5,532.833 411.5,528.5C 407.167,528.5 402.833,528.5 398.5,528.5C 398.5,519.833 398.5,511.167 398.5,502.5C 394.167,502.5 389.833,502.5 385.5,502.5C 385.5,498.167 385.5,493.833 385.5,489.5C 381.167,489.5 376.833,489.5 372.5,489.5C 372.5,485.167 372.5,480.833 372.5,476.5C 381.167,476.5 389.833,476.5 398.5,476.5C 398.5,472.167 398.5,467.833 398.5,463.5C 402.833,463.5 407.167,463.5 411.5,463.5C 411.5,459.167 411.5,454.833 411.5,450.5C 415.833,450.5 420.167,450.5 424.5,450.5C 424.5,446.167 424.5,441.833 424.5,437.5C 411.5,437.5 398.5,437.5 385.5,437.5C 385.5,424.5 385.5,411.5 385.5,398.5C 381.167,398.5 376.833,398.5 372.5,398.5C 372.5,402.833 372.5,407.167 372.5,411.5C 363.833,411.5 355.167,411.5 346.5,411.5C 346.5,407.167 346.5,402.833 346.5,398.5C 333.167,398.5 319.833,398.5 306.5,398.5C 306.5,394.167 306.5,389.833 306.5,385.5C 297.833,385.5 289.167,385.5 280.5,385.5C 280.5,376.833 280.5,368.167 280.5,359.5C 284.833,359.5 289.167,359.5 293.5,359.5C 293.5,355.167 293.5,350.833 293.5,346.5C 297.833,346.5 302.167,346.5 306.5,346.5C 306.5,355.167 306.5,363.833 306.5,372.5C 319.833,372.5 333.167,372.5 346.5,372.5C 346.5,368.167 346.5,363.833 346.5,359.5C 355.167,359.5 363.833,359.5 372.5,359.5C 372.5,363.833 372.5,368.167 372.5,372.5C 376.833,372.5 381.167,372.5 385.5,372.5C 385.5,376.833 385.5,381.167 385.5,385.5C 394.167,385.5 402.833,385.5 411.5,385.5C 411.5,363.833 411.5,342.167 411.5,320.5C 415.833,320.5 420.167,320.5 424.5,320.5C 424.5,333.5 424.5,346.5 424.5,359.5C 428.833,359.5 433.167,359.5 437.5,359.5C 437.5,363.833 437.5,368.167 437.5,372.5C 441.833,372.5 446.167,372.5 450.5,372.5C 450.5,363.833 450.5,355.167 450.5,346.5C 446.167,346.5 441.833,346.5 437.5,346.5C 437.5,342.167 437.5,337.833 437.5,333.5C 446.167,333.5 454.833,333.5 463.5,333.5C 463.5,337.833 463.5,342.167 463.5,346.5C 476.5,346.5 489.5,346.5 502.5,346.5C 502.5,341.833 502.5,337.167 502.5,332.5C 498.167,332.5 493.833,332.5 489.5,332.5C 489.5,323.833 489.5,315.167 489.5,306.5C 493.833,306.5 498.167,306.5 502.5,306.5C 502.5,293.5 502.5,280.5 502.5,267.5C 498.167,267.5 493.833,267.5 489.5,267.5C 489.5,258.833 489.5,250.167 489.5,241.5C 493.833,241.5 498.167,241.5 502.5,241.5C 502.5,245.833 502.5,250.167 502.5,254.5C 511.167,254.5 519.833,254.5 528.5,254.5C 528.5,258.833 528.5,263.167 528.5,267.5C 532.833,267.5 537.167,267.5 541.5,267.5C 541.5,276.167 541.5,284.833 541.5,293.5C 537.167,293.5 532.833,293.5 528.5,293.5 Z"/></g>
<g><path style="opacity:1" fill="#000000" d="M 6.5,254.5 C 10.8333,254.5 15.1667,254.5 19.5,254.5C 19.5,258.833 19.5,263.167 19.5,267.5C 15.1667,267.5 10.8333,267.5 6.5,267.5C 6.5,263.167 6.5,258.833 6.5,254.5 Z"/></g>
<g><path style="opacity:1" fill="#fdfdfd" d="M 85.5,254.5 C 94.1667,254.5 102.833,254.5 111.5,254.5C 111.5,258.833 111.5,263.167 111.5,267.5C 102.833,267.5 94.1667,267.5 85.5,267.5C 85.5,263.167 85.5,258.833 85.5,254.5 Z"/></g>
<g><path style="opacity:1" fill="#000000" d="M 163.5,254.5 C 163.5,263.167 163.5,271.833 163.5,280.5C 159.167,280.5 154.833,280.5 150.5,280.5C 150.5,271.833 150.5,263.167 150.5,254.5C 154.833,254.5 159.167,254.5 163.5,254.5 Z"/></g>
<g><path style="opacity:1" fill="#fdfdfd" d="M 293.5,267.5 C 289.167,267.5 284.833,267.5 280.5,267.5C 280.5,263.167 280.5,258.833 280.5,254.5C 284.833,254.5 289.167,254.5 293.5,254.5C 293.5,258.833 293.5,263.167 293.5,267.5 Z"/></g>
<g><path style="opacity:1" fill="#777777" d="M 85.5,241.5 C 85.5,245.833 85.5,250.167 85.5,254.5C 85.5,258.833 85.5,263.167 85.5,267.5C 85.5,271.833 85.5,276.167 85.5,280.5C 85.5,284.833 85.5,289.167 85.5,293.5C 85.5,293.833 85.5,294.167 85.5,294.5C 85.5,298.5 85.5,302.5 85.5,306.5C 85.5,306.833 85.5,307.167 85.5,307.5C 85.5,311.5 85.5,315.5 85.5,319.5C 84.5166,315.702 84.1832,311.702 84.5,307.5C 80.5,307.5 76.5,307.5 72.5,307.5C 72.8168,311.702 72.4834,315.702 71.5,319.5C 71.5,315.167 71.5,310.833 71.5,306.5C 75.8333,306.5 80.1667,306.5 84.5,306.5C 84.5,302.167 84.5,297.833 84.5,293.5C 84.5,289.167 84.5,284.833 84.5,280.5C 84.5,276.167 84.5,271.833 84.5,267.5C 84.5,263.167 84.5,258.833 84.5,254.5C 84.1818,249.968 84.5151,245.634 85.5,241.5 Z"/></g>
<g><path style="opacity:1" fill="#fafafa" d="M 84.5,267.5 C 84.5,271.833 84.5,276.167 84.5,280.5C 75.8333,280.5 67.1667,280.5 58.5,280.5C 58.5,276.167 58.5,271.833 58.5,267.5C 67.1667,267.5 75.8333,267.5 84.5,267.5 Z"/></g>
<g><path style="opacity:1" fill="#000000" d="M 189.5,280.5 C 185.167,280.5 180.833,280.5 176.5,280.5C 176.5,276.167 176.5,271.833 176.5,267.5C 180.833,267.5 185.167,267.5 189.5,267.5C 189.5,271.833 189.5,276.167 189.5,280.5 Z"/></g>
<g><path style="opacity:1" fill="#010101" d="M 280.5,267.5 C 284.833,267.5 289.167,267.5 293.5,267.5C 293.5,271.833 293.5,276.167 293.5,280.5C 302.167,280.5 310.833,280.5 319.5,280.5C 319.5,293.5 319.5,306.5 319.5,319.5C 315.167,319.5 310.833,319.5 306.5,319.5C 306.5,315.167 306.5,310.833 306.5,306.5C 302.167,306.5 297.833,306.5 293.5,306.5C 293.5,302.167 293.5,297.833 293.5,293.5C 289.167,293.5 284.833,293.5 280.5,293.5C 280.5,302.167 280.5,310.833 280.5,319.5C 288.984,320.493 297.651,320.826 306.5,320.5C 306.5,324.5 306.5,328.5 306.5,332.5C 297.651,332.174 288.984,332.507 280.5,333.5C 280.5,337.833 280.5,342.167 280.5,346.5C 276.167,346.5 271.833,346.5 267.5,346.5C 267.5,355.167 267.5,363.833 267.5,372.5C 263.167,372.5 258.833,372.5 254.5,372.5C 254.5,376.833 254.5,381.167 254.5,385.5C 245.833,385.5 237.167,385.5 228.5,385.5C 228.5,389.833 228.5,394.167 228.5,398.5C 237.167,398.5 245.833,398.5 254.5,398.5C 254.5,407.167 254.5,415.833 254.5,424.5C 250.167,424.5 245.833,424.5 241.5,424.5C 241.5,428.833 241.5,433.167 241.5,437.5C 237.167,437.5 232.833,437.5 228.5,437.5C 228.5,428.833 228.5,420.167 228.5,411.5C 215.5,411.5 202.5,411.5 189.5,411.5C 189.5,407.167 189.5,402.833 189.5,398.5C 198.167,398.5 206.833,398.5 215.5,398.5C 215.5,394.167 215.5,389.833 215.5,385.5C 211.167,385.5 206.833,385.5 202.5,385.5C 202.5,376.833 202.5,368.167 202.5,359.5C 206.833,359.5 211.167,359.5 215.5,359.5C 215.5,355.167 215.5,350.833 215.5,346.5C 228.677,346.829 241.677,346.495 254.5,345.5C 254.5,337.167 254.5,328.833 254.5,320.5C 258.833,320.5 263.167,320.5 267.5,320.5C 267.5,315.833 267.5,311.167 267.5,306.5C 263.167,306.5 258.833,306.5 254.5,306.5C 254.5,310.833 254.5,315.167 254.5,319.5C 250.167,319.5 245.833,319.5 241.5,319.5C 241.5,315.167 241.5,310.833 241.5,306.5C 237.167,306.5 232.833,306.5 228.5,306.5C 228.5,302.167 228.5,297.833 228.5,293.5C 241.5,293.5 254.5,293.5 267.5,293.5C 267.5,289.167 267.5,284.833 267.5,280.5C 271.833,280.5 276.167,280.5 280.5,280.5C 280.5,276.167 280.5,271.833 280.5,267.5 Z"/></g>
<g><path style="opacity:1" fill="#f9f9f9" d="M 476.5,267.5 C 476.5,280.5 476.5,293.5 476.5,306.5C 480.833,306.5 485.167,306.5 489.5,306.5C 489.5,315.167 489.5,323.833 489.5,332.5C 493.833,332.5 498.167,332.5 502.5,332.5C 502.5,337.167 502.5,341.833 502.5,346.5C 489.5,346.5 476.5,346.5 463.5,346.5C 463.5,342.167 463.5,337.833 463.5,333.5C 454.833,333.5 446.167,333.5 437.5,333.5C 437.5,337.833 437.5,342.167 437.5,346.5C 441.833,346.5 446.167,346.5 450.5,346.5C 450.5,355.167 450.5,363.833 450.5,372.5C 446.167,372.5 441.833,372.5 437.5,372.5C 437.5,368.167 437.5,363.833 437.5,359.5C 433.167,359.5 428.833,359.5 424.5,359.5C 424.5,346.5 424.5,333.5 424.5,320.5C 433.349,320.826 442.016,320.493 450.5,319.5C 450.5,315.167 450.5,310.833 450.5,306.5C 454.833,306.5 459.167,306.5 463.5,306.5C 463.5,293.5 463.5,280.5 463.5,267.5C 467.833,267.5 472.167,267.5 476.5,267.5 Z"/></g>
<g><path style="opacity:1" fill="#000000" d="M 476.5,267.5 C 480.833,267.5 485.167,267.5 489.5,267.5C 489.5,280.5 489.5,293.5 489.5,306.5C 485.167,306.5 480.833,306.5 476.5,306.5C 476.5,293.5 476.5,280.5 476.5,267.5 Z"/></g>
<g><path style="opacity:1" fill="#fefefe" d="M 489.5,267.5 C 493.833,267.5 498.167,267.5 502.5,267.5C 502.5,280.5 502.5,293.5 502.5,306.5C 498.167,306.5 493.833,306.5 489.5,306.5C 489.5,293.5 489.5,280.5 489.5,267.5 Z"/></g>
<g><path style="opacity:1" fill="#fbfbfb" d="M 85.5,280.5 C 94.1667,280.5 102.833,280.5 111.5,280.5C 111.5,289.167 111.5,297.833 111.5,306.5C 107.167,306.5 102.833,306.5 98.5,306.5C 98.5,302.167 98.5,297.833 98.5,293.5C 94.1667,293.5 89.8333,293.5 85.5,293.5C 85.5,289.167 85.5,284.833 85.5,280.5 Z"/></g>
<g><path style="opacity:1" fill="#040404" d="M 333.5,280.5 C 342.167,280.5 350.833,280.5 359.5,280.5C 359.5,284.833 359.5,289.167 359.5,293.5C 350.833,293.5 342.167,293.5 333.5,293.5C 333.5,289.167 333.5,284.833 333.5,280.5 Z"/></g>
<g><path style="opacity:1" fill="#fdfdfd" d="M 528.5,293.5 C 524.167,293.5 519.833,293.5 515.5,293.5C 515.5,289.167 515.5,284.833 515.5,280.5C 519.833,280.5 524.167,280.5 528.5,280.5C 528.5,284.833 528.5,289.167 528.5,293.5 Z"/></g>
<g><path style="opacity:1" fill="#838383" d="M 319.5,280.5 C 320.495,293.323 320.829,306.323 320.5,319.5C 324.5,319.5 328.5,319.5 332.5,319.5C 328.702,320.483 324.702,320.817 320.5,320.5C 320.817,324.702 320.483,328.702 319.5,332.5C 315.702,333.483 311.702,333.817 307.5,333.5C 307.5,337.5 307.5,341.5 307.5,345.5C 311.702,345.183 315.702,345.517 319.5,346.5C 315.5,346.5 311.5,346.5 307.5,346.5C 307.167,346.5 306.833,346.5 306.5,346.5C 302.167,346.5 297.833,346.5 293.5,346.5C 297.634,345.515 301.968,345.182 306.5,345.5C 306.5,341.5 306.5,337.5 306.5,333.5C 297.833,333.5 289.167,333.5 280.5,333.5C 288.984,332.507 297.651,332.174 306.5,332.5C 306.5,328.5 306.5,324.5 306.5,320.5C 297.651,320.826 288.984,320.493 280.5,319.5C 289.167,319.5 297.833,319.5 306.5,319.5C 310.833,319.5 315.167,319.5 319.5,319.5C 319.5,306.5 319.5,293.5 319.5,280.5 Z"/></g>
<g><path style="opacity:1" fill="#c0c0c0" d="M 333.5,280.5 C 333.5,284.833 333.5,289.167 333.5,293.5C 342.167,293.5 350.833,293.5 359.5,293.5C 350.682,294.493 341.682,294.827 332.5,294.5C 332.181,289.637 332.514,284.97 333.5,280.5 Z"/></g>
<g><path style="opacity:1" fill="#000000" d="M 85.5,294.5 C 89.5,294.5 93.5,294.5 97.5,294.5C 97.5,298.5 97.5,302.5 97.5,306.5C 93.5,306.5 89.5,306.5 85.5,306.5C 85.5,302.5 85.5,298.5 85.5,294.5 Z"/></g>
<g><path style="opacity:1" fill="#fbfbfb" d="M 228.5,293.5 C 228.5,297.833 228.5,302.167 228.5,306.5C 232.833,306.5 237.167,306.5 241.5,306.5C 241.5,310.833 241.5,315.167 241.5,319.5C 245.634,320.485 249.968,320.818 254.5,320.5C 254.5,328.833 254.5,337.167 254.5,345.5C 241.5,345.5 228.5,345.5 215.5,345.5C 215.5,341.5 215.5,337.5 215.5,333.5C 206.833,333.5 198.167,333.5 189.5,333.5C 189.5,324.5 189.5,315.5 189.5,306.5C 193.833,306.5 198.167,306.5 202.5,306.5C 202.5,310.833 202.5,315.167 202.5,319.5C 206.833,319.5 211.167,319.5 215.5,319.5C 215.5,310.833 215.5,302.167 215.5,293.5C 219.833,293.5 224.167,293.5 228.5,293.5 Z"/></g>
<g><path style="opacity:1" fill="#fbfbfb" d="M 306.5,319.5 C 297.833,319.5 289.167,319.5 280.5,319.5C 280.5,310.833 280.5,302.167 280.5,293.5C 284.833,293.5 289.167,293.5 293.5,293.5C 293.5,297.833 293.5,302.167 293.5,306.5C 297.833,306.5 302.167,306.5 306.5,306.5C 306.5,310.833 306.5,315.167 306.5,319.5 Z"/></g>
<g><path style="opacity:1" fill="#010101" d="M 411.5,293.5 C 411.5,302.167 411.5,310.833 411.5,319.5C 407.167,319.5 402.833,319.5 398.5,319.5C 398.5,315.167 398.5,310.833 398.5,306.5C 394.167,306.5 389.833,306.5 385.5,306.5C 385.5,310.833 385.5,315.167 385.5,319.5C 380.968,319.182 376.634,319.515 372.5,320.5C 372.5,328.833 372.5,337.167 372.5,345.5C 363.833,345.5 355.167,345.5 346.5,345.5C 346.5,341.5 346.5,337.5 346.5,333.5C 350.833,333.5 355.167,333.5 359.5,333.5C 359.5,328.833 359.5,324.167 359.5,319.5C 354.833,319.5 350.167,319.5 345.5,319.5C 345.5,323.833 345.5,328.167 345.5,332.5C 341.167,332.5 336.833,332.5 332.5,332.5C 332.5,337.167 332.5,341.833 332.5,346.5C 336.833,346.5 341.167,346.5 345.5,346.5C 345.5,350.5 345.5,354.5 345.5,358.5C 337.167,358.5 328.833,358.5 320.5,358.5C 320.817,354.298 320.483,350.298 319.5,346.5C 315.702,345.517 311.702,345.183 307.5,345.5C 307.5,341.5 307.5,337.5 307.5,333.5C 311.702,333.817 315.702,333.483 319.5,332.5C 320.483,328.702 320.817,324.702 320.5,320.5C 324.702,320.817 328.702,320.483 332.5,319.5C 333.483,315.702 333.817,311.702 333.5,307.5C 346.677,307.829 359.677,307.495 372.5,306.5C 372.5,302.167 372.5,297.833 372.5,293.5C 385.5,293.5 398.5,293.5 411.5,293.5 Z"/></g>
<g><path style="opacity:1" fill="#fdfdfd" d="M 411.5,293.5 C 415.833,293.5 420.167,293.5 424.5,293.5C 424.5,302.167 424.5,310.833 424.5,319.5C 420.167,319.5 415.833,319.5 411.5,319.5C 411.5,310.833 411.5,302.167 411.5,293.5 Z"/></g>
<g><path style="opacity:1" fill="#3e3e3e" d="M 85.5,294.5 C 85.5,294.167 85.5,293.833 85.5,293.5C 89.8333,293.5 94.1667,293.5 98.5,293.5C 98.5,297.833 98.5,302.167 98.5,306.5C 98.1667,306.5 97.8333,306.5 97.5,306.5C 97.5,302.5 97.5,298.5 97.5,294.5C 93.5,294.5 89.5,294.5 85.5,294.5 Z"/></g>
<g><path style="opacity:1" fill="#a0a0a0" d="M 85.5,307.5 C 85.5,307.167 85.5,306.833 85.5,306.5C 89.5,306.5 93.5,306.5 97.5,306.5C 97.8333,306.5 98.1667,306.5 98.5,306.5C 98.5,311.167 98.5,315.833 98.5,320.5C 93.9677,320.818 89.6344,320.485 85.5,319.5C 89.5,319.5 93.5,319.5 97.5,319.5C 97.5,315.5 97.5,311.5 97.5,307.5C 93.5,307.5 89.5,307.5 85.5,307.5 Z"/></g>
<g><path style="opacity:1" fill="#525252" d="M 372.5,306.5 C 359.677,307.495 346.677,307.829 333.5,307.5C 333.817,311.702 333.483,315.702 332.5,319.5C 332.5,315.167 332.5,310.833 332.5,306.5C 345.833,306.5 359.167,306.5 372.5,306.5 Z"/></g>
<g><path style="opacity:1" fill="#030303" d="M 98.5,306.5 C 102.833,306.5 107.167,306.5 111.5,306.5C 111.5,310.833 111.5,315.167 111.5,319.5C 115.833,319.5 120.167,319.5 124.5,319.5C 124.5,323.833 124.5,328.167 124.5,332.5C 111.323,332.171 98.3226,332.505 85.5,333.5C 84.5151,337.634 84.1818,341.968 84.5,346.5C 97.8333,346.5 111.167,346.5 124.5,346.5C 124.5,350.833 124.5,355.167 124.5,359.5C 128.833,359.5 133.167,359.5 137.5,359.5C 137.5,363.833 137.5,368.167 137.5,372.5C 150.5,372.5 163.5,372.5 176.5,372.5C 176.5,376.833 176.5,381.167 176.5,385.5C 167.833,385.5 159.167,385.5 150.5,385.5C 150.5,389.833 150.5,394.167 150.5,398.5C 141.833,398.5 133.167,398.5 124.5,398.5C 124.5,394.167 124.5,389.833 124.5,385.5C 120.167,385.5 115.833,385.5 111.5,385.5C 111.5,376.833 111.5,368.167 111.5,359.5C 102.833,359.5 94.1667,359.5 85.5,359.5C 85.5,363.833 85.5,368.167 85.5,372.5C 89.8333,372.5 94.1667,372.5 98.5,372.5C 98.5,376.833 98.5,381.167 98.5,385.5C 89.8333,385.5 81.1667,385.5 72.5,385.5C 72.5,381.167 72.5,376.833 72.5,372.5C 68.1667,372.5 63.8333,372.5 59.5,372.5C 59.5,368.167 59.5,363.833 59.5,359.5C 54.8333,359.5 50.1667,359.5 45.5,359.5C 45.5,363.833 45.5,368.167 45.5,372.5C 41.1667,372.5 36.8333,372.5 32.5,372.5C 32.5,368.167 32.5,363.833 32.5,359.5C 28.1667,359.5 23.8333,359.5 19.5,359.5C 19.5,355.167 19.5,350.833 19.5,346.5C 23.8333,346.5 28.1667,346.5 32.5,346.5C 32.5,342.167 32.5,337.833 32.5,333.5C 41.1667,333.5 49.8333,333.5 58.5,333.5C 58.5,337.833 58.5,342.167 58.5,346.5C 63.1667,346.5 67.8333,346.5 72.5,346.5C 72.5,341.833 72.5,337.167 72.5,332.5C 68.1667,332.5 63.8333,332.5 59.5,332.5C 59.5,328.5 59.5,324.5 59.5,320.5C 63.7016,320.817 67.7016,320.483 71.5,319.5C 72.4834,315.702 72.8168,311.702 72.5,307.5C 76.5,307.5 80.5,307.5 84.5,307.5C 84.1832,311.702 84.5166,315.702 85.5,319.5C 89.6344,320.485 93.9677,320.818 98.5,320.5C 98.5,315.833 98.5,311.167 98.5,306.5 Z"/></g>
<g><path style="opacity:1" fill="#fefefe" d="M 85.5,307.5 C 89.5,307.5 93.5,307.5 97.5,307.5C 97.5,311.5 97.5,315.5 97.5,319.5C 93.5,319.5 89.5,319.5 85.5,319.5C 85.5,315.5 85.5,311.5 85.5,307.5 Z"/></g>
<g><path style="opacity:1" fill="#e9e9e9" d="M 254.5,320.5 C 249.968,320.818 245.634,320.485 241.5,319.5C 245.833,319.5 250.167,319.5 254.5,319.5C 254.5,315.167 254.5,310.833 254.5,306.5C 258.833,306.5 263.167,306.5 267.5,306.5C 267.5,311.167 267.5,315.833 267.5,320.5C 263.167,320.5 258.833,320.5 254.5,320.5 Z"/></g>
<g><path style="opacity:1" fill="#dbdbdb" d="M 411.5,319.5 C 415.833,319.5 420.167,319.5 424.5,319.5C 433.167,319.5 441.833,319.5 450.5,319.5C 442.016,320.493 433.349,320.826 424.5,320.5C 420.167,320.5 415.833,320.5 411.5,320.5C 407.167,320.5 402.833,320.5 398.5,320.5C 394.167,320.5 389.833,320.5 385.5,320.5C 381.167,320.5 376.833,320.5 372.5,320.5C 376.634,319.515 380.968,319.182 385.5,319.5C 385.5,315.167 385.5,310.833 385.5,306.5C 389.833,306.5 394.167,306.5 398.5,306.5C 398.5,310.833 398.5,315.167 398.5,319.5C 402.833,319.5 407.167,319.5 411.5,319.5 Z"/></g>
<g><path style="opacity:1" fill="#f9f9f9" d="M 502.5,306.5 C 506.833,306.5 511.167,306.5 515.5,306.5C 515.5,310.833 515.5,315.167 515.5,319.5C 511.167,319.5 506.833,319.5 502.5,319.5C 502.5,315.167 502.5,310.833 502.5,306.5 Z"/></g>
<g><path style="opacity:1" fill="#f5f5f5" d="M 176.5,345.5 C 172.167,345.5 167.833,345.5 163.5,345.5C 163.5,350.167 163.5,354.833 163.5,359.5C 167.833,359.5 172.167,359.5 176.5,359.5C 176.5,363.833 176.5,368.167 176.5,372.5C 163.5,372.5 150.5,372.5 137.5,372.5C 137.5,368.167 137.5,363.833 137.5,359.5C 141.833,359.5 146.167,359.5 150.5,359.5C 150.5,355.167 150.5,350.833 150.5,346.5C 146.366,345.515 142.032,345.182 137.5,345.5C 137.5,341.5 137.5,337.5 137.5,333.5C 133.167,333.5 128.833,333.5 124.5,333.5C 111.5,333.5 98.5,333.5 85.5,333.5C 98.3226,332.505 111.323,332.171 124.5,332.5C 128.833,332.5 133.167,332.5 137.5,332.5C 146.167,332.5 154.833,332.5 163.5,332.5C 163.5,328.167 163.5,323.833 163.5,319.5C 167.833,319.5 172.167,319.5 176.5,319.5C 176.5,328.167 176.5,336.833 176.5,345.5 Z"/></g>
<g><path style="opacity:1" fill="#fefefe" d="M 319.5,332.5 C 315.5,332.5 311.5,332.5 307.5,332.5C 307.5,328.5 307.5,324.5 307.5,320.5C 311.5,320.5 315.5,320.5 319.5,320.5C 319.5,324.5 319.5,328.5 319.5,332.5 Z"/></g>
<g><path style="opacity:1" fill="#fdfdfd" d="M 372.5,320.5 C 376.833,320.5 381.167,320.5 385.5,320.5C 385.5,328.833 385.5,337.167 385.5,345.5C 381.167,345.5 376.833,345.5 372.5,345.5C 372.5,337.167 372.5,328.833 372.5,320.5 Z"/></g>
<g><path style="opacity:1" fill="#040404" d="M 385.5,320.5 C 389.833,320.5 394.167,320.5 398.5,320.5C 398.5,333.5 398.5,346.5 398.5,359.5C 389.833,359.5 381.167,359.5 372.5,359.5C 372.5,355.167 372.5,350.833 372.5,346.5C 377.032,346.818 381.366,346.485 385.5,345.5C 385.5,337.167 385.5,328.833 385.5,320.5 Z"/></g>
<g><path style="opacity:1" fill="#fefefe" d="M 398.5,320.5 C 402.833,320.5 407.167,320.5 411.5,320.5C 411.5,342.167 411.5,363.833 411.5,385.5C 402.833,385.5 394.167,385.5 385.5,385.5C 385.5,381.167 385.5,376.833 385.5,372.5C 381.167,372.5 376.833,372.5 372.5,372.5C 372.5,368.167 372.5,363.833 372.5,359.5C 381.167,359.5 389.833,359.5 398.5,359.5C 398.5,346.5 398.5,333.5 398.5,320.5 Z"/></g>
<g><path style="opacity:1" fill="#0b0b0b" d="M 463.5,319.5 C 467.833,319.5 472.167,319.5 476.5,319.5C 476.5,323.833 476.5,328.167 476.5,332.5C 472.167,332.5 467.833,332.5 463.5,332.5C 463.5,328.167 463.5,323.833 463.5,319.5 Z"/></g>
<g><path style="opacity:1" fill="#7f7f7f" d="M 71.5,319.5 C 67.7016,320.483 63.7016,320.817 59.5,320.5C 59.5,324.5 59.5,328.5 59.5,332.5C 63.8333,332.5 68.1667,332.5 72.5,332.5C 72.5,337.167 72.5,341.833 72.5,346.5C 67.8333,346.5 63.1667,346.5 58.5,346.5C 58.5,342.167 58.5,337.833 58.5,333.5C 49.8333,333.5 41.1667,333.5 32.5,333.5C 40.9839,332.507 49.6506,332.174 58.5,332.5C 58.5,328.167 58.5,323.833 58.5,319.5C 62.8333,319.5 67.1667,319.5 71.5,319.5 Z"/></g>
<g><path style="opacity:1" fill="#838383" d="M 372.5,345.5 C 376.833,345.5 381.167,345.5 385.5,345.5C 381.366,346.485 377.032,346.818 372.5,346.5C 372.167,346.5 371.833,346.5 371.5,346.5C 363.167,346.5 354.833,346.5 346.5,346.5C 346.167,346.5 345.833,346.5 345.5,346.5C 341.167,346.5 336.833,346.5 332.5,346.5C 332.5,341.833 332.5,337.167 332.5,332.5C 336.833,332.5 341.167,332.5 345.5,332.5C 345.5,328.167 345.5,323.833 345.5,319.5C 350.167,319.5 354.833,319.5 359.5,319.5C 359.5,324.167 359.5,328.833 359.5,333.5C 355.167,333.5 350.833,333.5 346.5,333.5C 346.5,337.5 346.5,341.5 346.5,345.5C 355.167,345.5 363.833,345.5 372.5,345.5 Z"/></g>
<g><path style="opacity:1" fill="#fefefe" d="M 346.5,320.5 C 350.5,320.5 354.5,320.5 358.5,320.5C 358.5,324.5 358.5,328.5 358.5,332.5C 354.5,332.5 350.5,332.5 346.5,332.5C 346.5,328.5 346.5,324.5 346.5,320.5 Z"/></g>
<g><path style="opacity:1" fill="#fefefe" d="M 59.5,333.5 C 63.5,333.5 67.5,333.5 71.5,333.5C 71.5,337.5 71.5,341.5 71.5,345.5C 67.5,345.5 63.5,345.5 59.5,345.5C 59.5,341.5 59.5,337.5 59.5,333.5 Z"/></g>
<g><path style="opacity:1" fill="#fefefe" d="M 85.5,333.5 C 98.5,333.5 111.5,333.5 124.5,333.5C 124.5,337.5 124.5,341.5 124.5,345.5C 111.5,345.5 98.5,345.5 85.5,345.5C 85.5,341.5 85.5,337.5 85.5,333.5 Z"/></g>
<g><path style="opacity:1" fill="#000000" d="M 124.5,333.5 C 128.833,333.5 133.167,333.5 137.5,333.5C 137.5,337.5 137.5,341.5 137.5,345.5C 133.167,345.5 128.833,345.5 124.5,345.5C 124.5,341.5 124.5,337.5 124.5,333.5 Z"/></g>
<g><path style="opacity:1" fill="#fdfdfd" d="M 280.5,333.5 C 289.167,333.5 297.833,333.5 306.5,333.5C 306.5,337.5 306.5,341.5 306.5,345.5C 301.968,345.182 297.634,345.515 293.5,346.5C 293.5,350.833 293.5,355.167 293.5,359.5C 289.167,359.5 284.833,359.5 280.5,359.5C 280.5,368.167 280.5,376.833 280.5,385.5C 289.167,385.5 297.833,385.5 306.5,385.5C 306.5,389.833 306.5,394.167 306.5,398.5C 293.5,398.5 280.5,398.5 267.5,398.5C 267.5,394.167 267.5,389.833 267.5,385.5C 263.167,385.5 258.833,385.5 254.5,385.5C 254.5,381.167 254.5,376.833 254.5,372.5C 258.833,372.5 263.167,372.5 267.5,372.5C 267.5,363.833 267.5,355.167 267.5,346.5C 271.833,346.5 276.167,346.5 280.5,346.5C 280.5,342.167 280.5,337.833 280.5,333.5 Z"/></g>
<g><path style="opacity:1" fill="#fefefe" d="M 333.5,333.5 C 337.5,333.5 341.5,333.5 345.5,333.5C 345.5,337.5 345.5,341.5 345.5,345.5C 341.5,345.5 337.5,345.5 333.5,345.5C 333.5,341.5 333.5,337.5 333.5,333.5 Z"/></g>
<g><path style="opacity:1" fill="#929292" d="M 85.5,333.5 C 85.5,337.5 85.5,341.5 85.5,345.5C 98.5,345.5 111.5,345.5 124.5,345.5C 128.833,345.5 133.167,345.5 137.5,345.5C 142.032,345.182 146.366,345.515 150.5,346.5C 146.167,346.5 141.833,346.5 137.5,346.5C 133.167,346.5 128.833,346.5 124.5,346.5C 111.167,346.5 97.8333,346.5 84.5,346.5C 84.1818,341.968 84.5151,337.634 85.5,333.5 Z"/></g>
<g><path style="opacity:1" fill="#f9f9f9" d="M 124.5,346.5 C 128.833,346.5 133.167,346.5 137.5,346.5C 137.5,350.833 137.5,355.167 137.5,359.5C 133.167,359.5 128.833,359.5 124.5,359.5C 124.5,355.167 124.5,350.833 124.5,346.5 Z"/></g>
<g><path style="opacity:1" fill="#080808" d="M 137.5,346.5 C 141.833,346.5 146.167,346.5 150.5,346.5C 150.5,350.833 150.5,355.167 150.5,359.5C 146.167,359.5 141.833,359.5 137.5,359.5C 137.5,355.167 137.5,350.833 137.5,346.5 Z"/></g>
<g><path style="opacity:1" fill="#171717" d="M 176.5,345.5 C 181.032,345.182 185.366,345.515 189.5,346.5C 185.167,346.5 180.833,346.5 176.5,346.5C 176.5,350.833 176.5,355.167 176.5,359.5C 172.167,359.5 167.833,359.5 163.5,359.5C 163.5,354.833 163.5,350.167 163.5,345.5C 167.833,345.5 172.167,345.5 176.5,345.5 Z"/></g>
<g><path style="opacity:1" fill="#f9f9f9" d="M 189.5,346.5 C 189.5,350.833 189.5,355.167 189.5,359.5C 185.167,359.5 180.833,359.5 176.5,359.5C 176.5,355.167 176.5,350.833 176.5,346.5C 180.833,346.5 185.167,346.5 189.5,346.5 Z"/></g>
<g><path style="opacity:1" fill="#e5e5e5" d="M 215.5,345.5 C 228.5,345.5 241.5,345.5 254.5,345.5C 241.677,346.495 228.677,346.829 215.5,346.5C 215.5,350.833 215.5,355.167 215.5,359.5C 211.167,359.5 206.833,359.5 202.5,359.5C 202.5,354.833 202.5,350.167 202.5,345.5C 206.833,345.5 211.167,345.5 215.5,345.5 Z"/></g>
<g><path style="opacity:1" fill="#fefefe" d="M 307.5,346.5 C 311.5,346.5 315.5,346.5 319.5,346.5C 319.5,350.833 319.5,355.167 319.5,359.5C 328.167,359.5 336.833,359.5 345.5,359.5C 345.5,363.5 345.5,367.5 345.5,371.5C 332.833,371.5 320.167,371.5 307.5,371.5C 307.5,363.167 307.5,354.833 307.5,346.5 Z"/></g>
<g><path style="opacity:1" fill="#fefefe" d="M 346.5,346.5 C 354.833,346.5 363.167,346.5 371.5,346.5C 371.5,350.5 371.5,354.5 371.5,358.5C 363.167,358.5 354.833,358.5 346.5,358.5C 346.5,354.5 346.5,350.5 346.5,346.5 Z"/></g>
<g><path style="opacity:1" fill="#535353" d="M 319.5,346.5 C 320.483,350.298 320.817,354.298 320.5,358.5C 328.833,358.5 337.167,358.5 345.5,358.5C 345.5,354.5 345.5,350.5 345.5,346.5C 345.833,346.5 346.167,346.5 346.5,346.5C 346.5,350.5 346.5,354.5 346.5,358.5C 346.5,358.833 346.5,359.167 346.5,359.5C 346.167,359.5 345.833,359.5 345.5,359.5C 336.833,359.5 328.167,359.5 319.5,359.5C 319.5,355.167 319.5,350.833 319.5,346.5 Z"/></g>
<g><path style="opacity:1" fill="#bdbdbd" d="M 371.5,346.5 C 371.833,346.5 372.167,346.5 372.5,346.5C 372.5,350.833 372.5,355.167 372.5,359.5C 363.833,359.5 355.167,359.5 346.5,359.5C 346.5,359.167 346.5,358.833 346.5,358.5C 354.833,358.5 363.167,358.5 371.5,358.5C 371.5,354.5 371.5,350.5 371.5,346.5 Z"/></g>
<g><path style="opacity:1" fill="#040404" d="M 19.5,359.5 C 19.5,363.833 19.5,368.167 19.5,372.5C 15.1667,372.5 10.8333,372.5 6.5,372.5C 6.5,368.167 6.5,363.833 6.5,359.5C 10.8333,359.5 15.1667,359.5 19.5,359.5 Z"/></g>
<g><path style="opacity:1" fill="#eaeaea" d="M 59.5,372.5 C 59.5,376.833 59.5,381.167 59.5,385.5C 58.5151,381.366 58.1818,377.032 58.5,372.5C 54.1667,372.5 49.8333,372.5 45.5,372.5C 45.5,368.167 45.5,363.833 45.5,359.5C 50.1667,359.5 54.8333,359.5 59.5,359.5C 59.5,363.833 59.5,368.167 59.5,372.5 Z"/></g>
<g><path style="opacity:1" fill="#040404" d="M 176.5,359.5 C 180.833,359.5 185.167,359.5 189.5,359.5C 189.5,363.833 189.5,368.167 189.5,372.5C 185.167,372.5 180.833,372.5 176.5,372.5C 176.5,368.167 176.5,363.833 176.5,359.5 Z"/></g>
<g><path style="opacity:1" fill="#fefefe" d="M 189.5,359.5 C 193.833,359.5 198.167,359.5 202.5,359.5C 202.5,368.167 202.5,376.833 202.5,385.5C 206.833,385.5 211.167,385.5 215.5,385.5C 215.5,389.833 215.5,394.167 215.5,398.5C 206.833,398.5 198.167,398.5 189.5,398.5C 189.5,394.167 189.5,389.833 189.5,385.5C 185.167,385.5 180.833,385.5 176.5,385.5C 176.5,381.167 176.5,376.833 176.5,372.5C 180.833,372.5 185.167,372.5 189.5,372.5C 189.5,368.167 189.5,363.833 189.5,359.5 Z"/></g>
<g><path style="opacity:1" fill="#fbfbfb" d="M 215.5,359.5 C 219.833,359.5 224.167,359.5 228.5,359.5C 228.5,363.833 228.5,368.167 228.5,372.5C 224.167,372.5 219.833,372.5 215.5,372.5C 215.5,368.167 215.5,363.833 215.5,359.5 Z"/></g>
<g><path style="opacity:1" fill="#fbfbfb" d="M 476.5,372.5 C 472.167,372.5 467.833,372.5 463.5,372.5C 463.5,368.167 463.5,363.833 463.5,359.5C 467.833,359.5 472.167,359.5 476.5,359.5C 476.5,363.833 476.5,368.167 476.5,372.5 Z"/></g>
<g><path style="opacity:1" fill="#c3c3c3" d="M 306.5,346.5 C 306.833,346.5 307.167,346.5 307.5,346.5C 307.5,354.833 307.5,363.167 307.5,371.5C 320.167,371.5 332.833,371.5 345.5,371.5C 345.5,367.5 345.5,363.5 345.5,359.5C 345.833,359.5 346.167,359.5 346.5,359.5C 346.5,363.833 346.5,368.167 346.5,372.5C 333.167,372.5 319.833,372.5 306.5,372.5C 306.5,363.833 306.5,355.167 306.5,346.5 Z"/></g>
<g><path style="opacity:1" fill="#020202" d="M 45.5,372.5 C 49.8333,372.5 54.1667,372.5 58.5,372.5C 58.1818,377.032 58.5151,381.366 59.5,385.5C 63.5,385.5 67.5,385.5 71.5,385.5C 71.5,389.833 71.5,394.167 71.5,398.5C 67.1667,398.5 62.8333,398.5 58.5,398.5C 58.5,411.5 58.5,424.5 58.5,437.5C 45.5,437.5 32.5,437.5 19.5,437.5C 19.5,433.167 19.5,428.833 19.5,424.5C 23.8333,424.5 28.1667,424.5 32.5,424.5C 32.5,415.833 32.5,407.167 32.5,398.5C 36.8333,398.5 41.1667,398.5 45.5,398.5C 45.5,389.833 45.5,381.167 45.5,372.5 Z"/></g>
<g><path style="opacity:1" fill="#ececec" d="M 59.5,372.5 C 63.8333,372.5 68.1667,372.5 72.5,372.5C 72.5,376.833 72.5,381.167 72.5,385.5C 72.8182,390.032 72.4849,394.366 71.5,398.5C 71.5,394.167 71.5,389.833 71.5,385.5C 67.5,385.5 63.5,385.5 59.5,385.5C 59.5,381.167 59.5,376.833 59.5,372.5 Z"/></g>
<g><path style="opacity:1" fill="#fbfbfb" d="M 372.5,372.5 C 372.5,376.833 372.5,381.167 372.5,385.5C 368.167,385.5 363.833,385.5 359.5,385.5C 359.5,381.167 359.5,376.833 359.5,372.5C 363.833,372.5 368.167,372.5 372.5,372.5 Z"/></g>
<g><path style="opacity:1" fill="#fefefe" d="M 450.5,372.5 C 454.833,372.5 459.167,372.5 463.5,372.5C 463.5,385.5 463.5,398.5 463.5,411.5C 459.167,411.5 454.833,411.5 450.5,411.5C 450.5,407.167 450.5,402.833 450.5,398.5C 446.167,398.5 441.833,398.5 437.5,398.5C 437.5,394.167 437.5,389.833 437.5,385.5C 441.833,385.5 446.167,385.5 450.5,385.5C 450.5,381.167 450.5,376.833 450.5,372.5 Z"/></g>
<g><path style="opacity:1" fill="#fefefe" d="M 476.5,372.5 C 480.833,372.5 485.167,372.5 489.5,372.5C 489.5,381.167 489.5,389.833 489.5,398.5C 485.167,398.5 480.833,398.5 476.5,398.5C 476.5,389.833 476.5,381.167 476.5,372.5 Z"/></g>
<g><path style="opacity:1" fill="#000000" d="M 515.5,372.5 C 519.833,372.5 524.167,372.5 528.5,372.5C 528.5,381.167 528.5,389.833 528.5,398.5C 524.167,398.5 519.833,398.5 515.5,398.5C 515.5,389.833 515.5,381.167 515.5,372.5 Z"/></g>
<g><path style="opacity:1" fill="#fefefe" d="M 176.5,385.5 C 180.833,385.5 185.167,385.5 189.5,385.5C 189.5,389.833 189.5,394.167 189.5,398.5C 189.5,402.833 189.5,407.167 189.5,411.5C 202.5,411.5 215.5,411.5 228.5,411.5C 228.5,420.167 228.5,428.833 228.5,437.5C 232.833,437.5 237.167,437.5 241.5,437.5C 241.5,441.833 241.5,446.167 241.5,450.5C 232.833,450.5 224.167,450.5 215.5,450.5C 215.5,459.167 215.5,467.833 215.5,476.5C 219.833,476.5 224.167,476.5 228.5,476.5C 228.5,472.167 228.5,467.833 228.5,463.5C 232.833,463.5 237.167,463.5 241.5,463.5C 241.5,472.167 241.5,480.833 241.5,489.5C 232.833,489.5 224.167,489.5 215.5,489.5C 215.5,493.833 215.5,498.167 215.5,502.5C 211.167,502.5 206.833,502.5 202.5,502.5C 202.5,506.833 202.5,511.167 202.5,515.5C 206.833,515.5 211.167,515.5 215.5,515.5C 215.5,519.833 215.5,524.167 215.5,528.5C 198.167,528.5 180.833,528.5 163.5,528.5C 163.5,519.833 163.5,511.167 163.5,502.5C 167.833,502.5 172.167,502.5 176.5,502.5C 176.5,493.833 176.5,485.167 176.5,476.5C 185.167,476.5 193.833,476.5 202.5,476.5C 202.5,467.833 202.5,459.167 202.5,450.5C 198.167,450.5 193.833,450.5 189.5,450.5C 189.5,454.833 189.5,459.167 189.5,463.5C 185.167,463.5 180.833,463.5 176.5,463.5C 176.5,454.833 176.5,446.167 176.5,437.5C 163.5,437.5 150.5,437.5 137.5,437.5C 137.5,441.833 137.5,446.167 137.5,450.5C 133.167,450.5 128.833,450.5 124.5,450.5C 124.5,446.167 124.5,441.833 124.5,437.5C 120.167,437.5 115.833,437.5 111.5,437.5C 111.5,433.167 111.5,428.833 111.5,424.5C 115.833,424.5 120.167,424.5 124.5,424.5C 124.5,415.833 124.5,407.167 124.5,398.5C 133.167,398.5 141.833,398.5 150.5,398.5C 150.5,394.167 150.5,389.833 150.5,385.5C 159.167,385.5 167.833,385.5 176.5,385.5 Z"/></g>
<g><path style="opacity:1" fill="#000000" d="M 176.5,385.5 C 180.833,385.5 185.167,385.5 189.5,385.5C 189.5,389.833 189.5,394.167 189.5,398.5C 185.167,398.5 180.833,398.5 176.5,398.5C 176.5,394.167 176.5,389.833 176.5,385.5 Z"/></g>
<g><path style="opacity:1" fill="#fefefe" d="M 254.5,385.5 C 254.5,389.833 254.5,394.167 254.5,398.5C 245.833,398.5 237.167,398.5 228.5,398.5C 228.5,394.167 228.5,389.833 228.5,385.5C 237.167,385.5 245.833,385.5 254.5,385.5 Z"/></g>
<g><path style="opacity:1" fill="#000000" d="M 254.5,385.5 C 258.833,385.5 263.167,385.5 267.5,385.5C 267.5,389.833 267.5,394.167 267.5,398.5C 263.167,398.5 258.833,398.5 254.5,398.5C 254.5,394.167 254.5,389.833 254.5,385.5 Z"/></g>
<g><path style="opacity:1" fill="#fefefe" d="M 411.5,385.5 C 415.833,385.5 420.167,385.5 424.5,385.5C 424.5,394.167 424.5,402.833 424.5,411.5C 428.833,411.5 433.167,411.5 437.5,411.5C 437.5,415.833 437.5,420.167 437.5,424.5C 424.5,424.5 411.5,424.5 398.5,424.5C 398.5,415.833 398.5,407.167 398.5,398.5C 402.833,398.5 407.167,398.5 411.5,398.5C 411.5,394.167 411.5,389.833 411.5,385.5 Z"/></g>
<g><path style="opacity:1" fill="#000000" d="M 6.5,398.5 C 10.8333,398.5 15.1667,398.5 19.5,398.5C 19.5,402.833 19.5,407.167 19.5,411.5C 15.1667,411.5 10.8333,411.5 6.5,411.5C 6.5,407.167 6.5,402.833 6.5,398.5 Z"/></g>
<g><path style="opacity:1" fill="#000000" d="M 85.5,398.5 C 98.5,398.5 111.5,398.5 124.5,398.5C 124.5,407.167 124.5,415.833 124.5,424.5C 120.167,424.5 115.833,424.5 111.5,424.5C 111.5,420.167 111.5,415.833 111.5,411.5C 102.833,411.5 94.1667,411.5 85.5,411.5C 85.5,407.167 85.5,402.833 85.5,398.5 Z"/></g>
<g><path style="opacity:1" fill="#fefefe" d="M 254.5,398.5 C 258.833,398.5 263.167,398.5 267.5,398.5C 267.5,407.167 267.5,415.833 267.5,424.5C 263.167,424.5 258.833,424.5 254.5,424.5C 254.5,415.833 254.5,407.167 254.5,398.5 Z"/></g>
<g><path style="opacity:1" fill="#010101" d="M 267.5,398.5 C 280.5,398.5 293.5,398.5 306.5,398.5C 306.5,407.167 306.5,415.833 306.5,424.5C 302.167,424.5 297.833,424.5 293.5,424.5C 293.5,420.167 293.5,415.833 293.5,411.5C 289.167,411.5 284.833,411.5 280.5,411.5C 280.5,415.833 280.5,420.167 280.5,424.5C 276.167,424.5 271.833,424.5 267.5,424.5C 267.5,415.833 267.5,407.167 267.5,398.5 Z"/></g>
<g><path style="opacity:1" fill="#fafafa" d="M 306.5,398.5 C 319.833,398.5 333.167,398.5 346.5,398.5C 346.5,402.833 346.5,407.167 346.5,411.5C 355.167,411.5 363.833,411.5 372.5,411.5C 372.5,407.167 372.5,402.833 372.5,398.5C 376.833,398.5 381.167,398.5 385.5,398.5C 385.5,411.5 385.5,424.5 385.5,437.5C 398.5,437.5 411.5,437.5 424.5,437.5C 424.5,441.833 424.5,446.167 424.5,450.5C 420.167,450.5 415.833,450.5 411.5,450.5C 411.5,454.833 411.5,459.167 411.5,463.5C 407.167,463.5 402.833,463.5 398.5,463.5C 398.5,467.833 398.5,472.167 398.5,476.5C 389.833,476.5 381.167,476.5 372.5,476.5C 372.5,480.833 372.5,485.167 372.5,489.5C 363.833,489.5 355.167,489.5 346.5,489.5C 346.818,494.032 346.485,498.366 345.5,502.5C 345.5,498.167 345.5,493.833 345.5,489.5C 345.5,485.167 345.5,480.833 345.5,476.5C 350.167,476.5 354.833,476.5 359.5,476.5C 359.5,472.167 359.5,467.833 359.5,463.5C 350.833,463.5 342.167,463.5 333.5,463.5C 333.818,468.032 333.485,472.366 332.5,476.5C 332.5,472.167 332.5,467.833 332.5,463.5C 332.5,454.833 332.5,446.167 332.5,437.5C 332.5,433.167 332.5,428.833 332.5,424.5C 332.5,420.167 332.5,415.833 332.5,411.5C 328.5,411.5 324.5,411.5 320.5,411.5C 320.5,415.833 320.5,420.167 320.5,424.5C 320.5,428.833 320.5,433.167 320.5,437.5C 319.515,433.366 319.182,429.032 319.5,424.5C 315.167,424.5 310.833,424.5 306.5,424.5C 306.5,415.833 306.5,407.167 306.5,398.5 Z"/></g>
<g><path style="opacity:1" fill="#080808" d="M 85.5,398.5 C 85.5,402.833 85.5,407.167 85.5,411.5C 85.5,415.833 85.5,420.167 85.5,424.5C 94.1667,424.5 102.833,424.5 111.5,424.5C 111.5,428.833 111.5,433.167 111.5,437.5C 98.5,437.5 85.5,437.5 72.5,437.5C 72.5,428.833 72.5,420.167 72.5,411.5C 76.5,411.5 80.5,411.5 84.5,411.5C 84.1818,406.968 84.5151,402.634 85.5,398.5 Z"/></g>
<g><path style="opacity:1" fill="#fdfdfd" d="M 85.5,411.5 C 94.1667,411.5 102.833,411.5 111.5,411.5C 111.5,415.833 111.5,420.167 111.5,424.5C 102.833,424.5 94.1667,424.5 85.5,424.5C 85.5,420.167 85.5,415.833 85.5,411.5 Z"/></g>
<g><path style="opacity:1" fill="#000000" d="M 150.5,411.5 C 154.833,411.5 159.167,411.5 163.5,411.5C 163.5,415.833 163.5,420.167 163.5,424.5C 159.167,424.5 154.833,424.5 150.5,424.5C 150.5,420.167 150.5,415.833 150.5,411.5 Z"/></g>
<g><path style="opacity:1" fill="#fdfdfd" d="M 306.5,424.5 C 306.5,437.5 306.5,450.5 306.5,463.5C 302.167,463.5 297.833,463.5 293.5,463.5C 293.5,454.833 293.5,446.167 293.5,437.5C 284.833,437.5 276.167,437.5 267.5,437.5C 267.5,433.167 267.5,428.833 267.5,424.5C 271.833,424.5 276.167,424.5 280.5,424.5C 280.5,420.167 280.5,415.833 280.5,411.5C 284.833,411.5 289.167,411.5 293.5,411.5C 293.5,415.833 293.5,420.167 293.5,424.5C 297.833,424.5 302.167,424.5 306.5,424.5 Z"/></g>
<g><path style="opacity:1" fill="#000000" d="M 332.5,424.5 C 328.5,424.5 324.5,424.5 320.5,424.5C 320.5,420.167 320.5,415.833 320.5,411.5C 324.5,411.5 328.5,411.5 332.5,411.5C 332.5,415.833 332.5,420.167 332.5,424.5 Z"/></g>
<g><path style="opacity:1" fill="#fefefe" d="M 502.5,411.5 C 502.5,415.833 502.5,420.167 502.5,424.5C 493.833,424.5 485.167,424.5 476.5,424.5C 476.5,420.167 476.5,415.833 476.5,411.5C 485.167,411.5 493.833,411.5 502.5,411.5 Z"/></g>
<g><path style="opacity:1" fill="#000000" d="M 528.5,424.5 C 528.5,420.167 528.5,415.833 528.5,411.5C 532.833,411.5 537.167,411.5 541.5,411.5C 541.5,415.833 541.5,420.167 541.5,424.5C 537.167,424.5 532.833,424.5 528.5,424.5 Z"/></g>
<g><path style="opacity:1" fill="#000000" d="M 176.5,437.5 C 176.5,433.167 176.5,428.833 176.5,424.5C 185.167,424.5 193.833,424.5 202.5,424.5C 202.5,428.833 202.5,433.167 202.5,437.5C 193.833,437.5 185.167,437.5 176.5,437.5 Z"/></g>
<g><path style="opacity:1" fill="#fefefe" d="M 254.5,424.5 C 254.5,428.833 254.5,433.167 254.5,437.5C 250.167,437.5 245.833,437.5 241.5,437.5C 241.5,433.167 241.5,428.833 241.5,424.5C 245.833,424.5 250.167,424.5 254.5,424.5 Z"/></g>
<g><path style="opacity:1" fill="#000000" d="M 254.5,424.5 C 258.833,424.5 263.167,424.5 267.5,424.5C 267.5,428.833 267.5,433.167 267.5,437.5C 263.167,437.5 258.833,437.5 254.5,437.5C 254.5,433.167 254.5,428.833 254.5,424.5 Z"/></g>
<g><path style="opacity:1" fill="#090909" d="M 306.5,424.5 C 310.833,424.5 315.167,424.5 319.5,424.5C 319.182,429.032 319.515,433.366 320.5,437.5C 324.5,437.5 328.5,437.5 332.5,437.5C 332.5,446.167 332.5,454.833 332.5,463.5C 328.5,463.5 324.5,463.5 320.5,463.5C 320.5,467.833 320.5,472.167 320.5,476.5C 320.5,485.167 320.5,493.833 320.5,502.5C 319.507,494.016 319.174,485.349 319.5,476.5C 310.833,476.5 302.167,476.5 293.5,476.5C 293.5,472.167 293.5,467.833 293.5,463.5C 297.833,463.5 302.167,463.5 306.5,463.5C 306.5,450.5 306.5,437.5 306.5,424.5 Z"/></g>
<g><path style="opacity:1" fill="#fefefe" d="M 320.5,424.5 C 324.5,424.5 328.5,424.5 332.5,424.5C 332.5,428.833 332.5,433.167 332.5,437.5C 328.5,437.5 324.5,437.5 320.5,437.5C 320.5,433.167 320.5,428.833 320.5,424.5 Z"/></g>
<g><path style="opacity:1" fill="#040404" d="M 333.5,424.5 C 342.167,424.5 350.833,424.5 359.5,424.5C 359.5,428.833 359.5,433.167 359.5,437.5C 350.833,437.5 342.167,437.5 333.5,437.5C 333.5,433.167 333.5,428.833 333.5,424.5 Z"/></g>
<g><path style="opacity:1" fill="#010101" d="M 111.5,437.5 C 115.833,437.5 120.167,437.5 124.5,437.5C 124.5,441.833 124.5,446.167 124.5,450.5C 120.167,450.5 115.833,450.5 111.5,450.5C 111.5,446.167 111.5,441.833 111.5,437.5 Z"/></g>
<g><path style="opacity:1" fill="#000000" d="M 176.5,437.5 C 176.5,446.167 176.5,454.833 176.5,463.5C 167.833,463.5 159.167,463.5 150.5,463.5C 150.5,472.167 150.5,480.833 150.5,489.5C 146.167,489.5 141.833,489.5 137.5,489.5C 137.5,498.167 137.5,506.833 137.5,515.5C 133.167,515.5 128.833,515.5 124.5,515.5C 124.5,524.167 124.5,532.833 124.5,541.5C 120.167,541.5 115.833,541.5 111.5,541.5C 111.5,524.167 111.5,506.833 111.5,489.5C 115.833,489.5 120.167,489.5 124.5,489.5C 124.5,485.167 124.5,480.833 124.5,476.5C 128.833,476.5 133.167,476.5 137.5,476.5C 137.5,472.167 137.5,467.833 137.5,463.5C 133.167,463.5 128.833,463.5 124.5,463.5C 124.5,459.167 124.5,454.833 124.5,450.5C 128.833,450.5 133.167,450.5 137.5,450.5C 137.5,446.167 137.5,441.833 137.5,437.5C 150.5,437.5 163.5,437.5 176.5,437.5 Z"/></g>
<g><path style="opacity:1" fill="#000000" d="M 241.5,437.5 C 245.833,437.5 250.167,437.5 254.5,437.5C 254.5,441.833 254.5,446.167 254.5,450.5C 250.167,450.5 245.833,450.5 241.5,450.5C 241.5,446.167 241.5,441.833 241.5,437.5 Z"/></g>
<g><path style="opacity:1" fill="#fefefe" d="M 254.5,437.5 C 258.833,437.5 263.167,437.5 267.5,437.5C 267.5,441.833 267.5,446.167 267.5,450.5C 271.833,450.5 276.167,450.5 280.5,450.5C 280.5,454.833 280.5,459.167 280.5,463.5C 267.5,463.5 254.5,463.5 241.5,463.5C 241.5,459.167 241.5,454.833 241.5,450.5C 245.833,450.5 250.167,450.5 254.5,450.5C 254.5,446.167 254.5,441.833 254.5,437.5 Z"/></g>
<g><path style="opacity:1" fill="#000000" d="M 267.5,437.5 C 276.167,437.5 284.833,437.5 293.5,437.5C 293.5,446.167 293.5,454.833 293.5,463.5C 289.167,463.5 284.833,463.5 280.5,463.5C 280.5,459.167 280.5,454.833 280.5,450.5C 276.167,450.5 271.833,450.5 267.5,450.5C 267.5,446.167 267.5,441.833 267.5,437.5 Z"/></g>
<g><path style="opacity:1" fill="#fefefe" d="M 437.5,437.5 C 450.5,437.5 463.5,437.5 476.5,437.5C 476.5,450.5 476.5,463.5 476.5,476.5C 463.5,476.5 450.5,476.5 437.5,476.5C 437.5,463.5 437.5,450.5 437.5,437.5 Z"/></g>
<g><path style="opacity:1" fill="#fefefe" d="M 515.5,450.5 C 511.167,450.5 506.833,450.5 502.5,450.5C 502.5,446.167 502.5,441.833 502.5,437.5C 506.833,437.5 511.167,437.5 515.5,437.5C 515.5,441.833 515.5,446.167 515.5,450.5 Z"/></g>
<g><path style="opacity:1" fill="#020202" d="M 6.5,450.5 C 37.1667,450.5 67.8333,450.5 98.5,450.5C 98.5,480.833 98.5,511.167 98.5,541.5C 67.8333,541.5 37.1667,541.5 6.5,541.5C 6.5,511.167 6.5,480.833 6.5,450.5 Z"/></g>
<g><path style="opacity:1" fill="#000000" d="M 176.5,476.5 C 176.5,472.167 176.5,467.833 176.5,463.5C 180.833,463.5 185.167,463.5 189.5,463.5C 189.5,459.167 189.5,454.833 189.5,450.5C 193.833,450.5 198.167,450.5 202.5,450.5C 202.5,459.167 202.5,467.833 202.5,476.5C 193.833,476.5 185.167,476.5 176.5,476.5 Z"/></g>
<g><path style="opacity:1" fill="#000000" d="M 241.5,450.5 C 241.5,454.833 241.5,459.167 241.5,463.5C 237.167,463.5 232.833,463.5 228.5,463.5C 228.5,467.833 228.5,472.167 228.5,476.5C 224.167,476.5 219.833,476.5 215.5,476.5C 215.5,467.833 215.5,459.167 215.5,450.5C 224.167,450.5 232.833,450.5 241.5,450.5 Z"/></g>
<g><path style="opacity:1" fill="#010101" d="M 372.5,450.5 C 376.833,450.5 381.167,450.5 385.5,450.5C 385.5,454.833 385.5,459.167 385.5,463.5C 381.167,463.5 376.833,463.5 372.5,463.5C 372.5,459.167 372.5,454.833 372.5,450.5 Z"/></g>
<g><path style="opacity:1" fill="#000000" d="M 450.5,450.5 C 454.833,450.5 459.167,450.5 463.5,450.5C 463.5,454.833 463.5,459.167 463.5,463.5C 459.167,463.5 454.833,463.5 450.5,463.5C 450.5,459.167 450.5,454.833 450.5,450.5 Z"/></g>
<g><path style="opacity:1" fill="#fefefe" d="M 502.5,450.5 C 502.5,454.833 502.5,459.167 502.5,463.5C 506.833,463.5 511.167,463.5 515.5,463.5C 515.5,467.833 515.5,472.167 515.5,476.5C 511.167,476.5 506.833,476.5 502.5,476.5C 502.5,480.833 502.5,485.167 502.5,489.5C 498.167,489.5 493.833,489.5 489.5,489.5C 489.5,476.5 489.5,463.5 489.5,450.5C 493.833,450.5 498.167,450.5 502.5,450.5 Z"/></g>
<g><path style="opacity:1" fill="#000000" d="M 502.5,450.5 C 506.833,450.5 511.167,450.5 515.5,450.5C 515.5,454.833 515.5,459.167 515.5,463.5C 511.167,463.5 506.833,463.5 502.5,463.5C 502.5,459.167 502.5,454.833 502.5,450.5 Z"/></g>
<g><path style="opacity:1" fill="#fafafa" d="M 19.5,463.5 C 41.5,463.5 63.5,463.5 85.5,463.5C 85.5,485.167 85.5,506.833 85.5,528.5C 63.5,528.5 41.5,528.5 19.5,528.5C 19.5,506.833 19.5,485.167 19.5,463.5 Z"/></g>
<g><path style="opacity:1" fill="#fefefe" d="M 176.5,463.5 C 176.5,467.833 176.5,472.167 176.5,476.5C 172.167,476.5 167.833,476.5 163.5,476.5C 163.5,480.833 163.5,485.167 163.5,489.5C 159.167,489.5 154.833,489.5 150.5,489.5C 150.5,480.833 150.5,472.167 150.5,463.5C 159.167,463.5 167.833,463.5 176.5,463.5 Z"/></g>
<g><path style="opacity:1" fill="#000000" d="M 241.5,463.5 C 254.5,463.5 267.5,463.5 280.5,463.5C 280.5,467.833 280.5,472.167 280.5,476.5C 271.833,476.5 263.167,476.5 254.5,476.5C 254.5,489.5 254.5,502.5 254.5,515.5C 250.167,515.5 245.833,515.5 241.5,515.5C 241.5,511.167 241.5,506.833 241.5,502.5C 237.167,502.5 232.833,502.5 228.5,502.5C 228.5,515.5 228.5,528.5 228.5,541.5C 206.833,541.5 185.167,541.5 163.5,541.5C 163.5,537.167 163.5,532.833 163.5,528.5C 180.833,528.5 198.167,528.5 215.5,528.5C 215.5,524.167 215.5,519.833 215.5,515.5C 211.167,515.5 206.833,515.5 202.5,515.5C 202.5,511.167 202.5,506.833 202.5,502.5C 206.833,502.5 211.167,502.5 215.5,502.5C 215.5,498.167 215.5,493.833 215.5,489.5C 224.167,489.5 232.833,489.5 241.5,489.5C 241.5,480.833 241.5,472.167 241.5,463.5 Z"/></g>
<g><path style="opacity:1" fill="#fdfdfd" d="M 280.5,463.5 C 284.833,463.5 289.167,463.5 293.5,463.5C 293.5,467.833 293.5,472.167 293.5,476.5C 289.167,476.5 284.833,476.5 280.5,476.5C 280.5,472.167 280.5,467.833 280.5,463.5 Z"/></g>
<g><path style="opacity:1" fill="#fefefe" d="M 332.5,463.5 C 332.5,467.833 332.5,472.167 332.5,476.5C 328.5,476.5 324.5,476.5 320.5,476.5C 320.5,472.167 320.5,467.833 320.5,463.5C 324.5,463.5 328.5,463.5 332.5,463.5 Z"/></g>
<g><path style="opacity:1" fill="#020202" d="M 345.5,489.5 C 341.5,489.5 337.5,489.5 333.5,489.5C 332.515,493.634 332.182,497.968 332.5,502.5C 328.5,502.5 324.5,502.5 320.5,502.5C 320.5,493.833 320.5,485.167 320.5,476.5C 324.5,476.5 328.5,476.5 332.5,476.5C 333.485,472.366 333.818,468.032 333.5,463.5C 342.167,463.5 350.833,463.5 359.5,463.5C 359.5,467.833 359.5,472.167 359.5,476.5C 354.833,476.5 350.167,476.5 345.5,476.5C 345.5,480.833 345.5,485.167 345.5,489.5 Z"/></g>
<g><path style="opacity:1" fill="#fefefe" d="M 411.5,463.5 C 415.833,463.5 420.167,463.5 424.5,463.5C 424.5,472.167 424.5,480.833 424.5,489.5C 420.167,489.5 415.833,489.5 411.5,489.5C 411.5,480.833 411.5,472.167 411.5,463.5 Z"/></g>
<g><path style="opacity:1" fill="#000000" d="M 515.5,463.5 C 524.167,463.5 532.833,463.5 541.5,463.5C 541.5,467.833 541.5,472.167 541.5,476.5C 532.833,476.5 524.167,476.5 515.5,476.5C 515.5,472.167 515.5,467.833 515.5,463.5 Z"/></g>
<g><path style="opacity:1" fill="#010101" d="M 32.5,476.5 C 45.5,476.5 58.5,476.5 71.5,476.5C 71.5,489.5 71.5,502.5 71.5,515.5C 58.5,515.5 45.5,515.5 32.5,515.5C 32.5,502.5 32.5,489.5 32.5,476.5 Z"/></g>
<g><path style="opacity:1" fill="#000000" d="M 176.5,476.5 C 176.5,485.167 176.5,493.833 176.5,502.5C 172.167,502.5 167.833,502.5 163.5,502.5C 163.5,511.167 163.5,519.833 163.5,528.5C 154.833,528.5 146.167,528.5 137.5,528.5C 137.5,524.167 137.5,519.833 137.5,515.5C 141.833,515.5 146.167,515.5 150.5,515.5C 150.5,506.833 150.5,498.167 150.5,489.5C 154.833,489.5 159.167,489.5 163.5,489.5C 163.5,485.167 163.5,480.833 163.5,476.5C 167.833,476.5 172.167,476.5 176.5,476.5 Z"/></g>
<g><path style="opacity:1" fill="#010101" d="M 280.5,476.5 C 284.833,476.5 289.167,476.5 293.5,476.5C 293.5,480.833 293.5,485.167 293.5,489.5C 289.167,489.5 284.833,489.5 280.5,489.5C 280.5,485.167 280.5,480.833 280.5,476.5 Z"/></g>
<g><path style="opacity:1" fill="#fefefe" d="M 150.5,489.5 C 150.5,498.167 150.5,506.833 150.5,515.5C 146.167,515.5 141.833,515.5 137.5,515.5C 137.5,506.833 137.5,498.167 137.5,489.5C 141.833,489.5 146.167,489.5 150.5,489.5 Z"/></g>
<g><path style="opacity:1" fill="#fefefe" d="M 333.5,489.5 C 337.5,489.5 341.5,489.5 345.5,489.5C 345.5,493.833 345.5,498.167 345.5,502.5C 341.5,502.5 337.5,502.5 333.5,502.5C 333.5,498.167 333.5,493.833 333.5,489.5 Z"/></g>
<g><path style="opacity:1" fill="#040404" d="M 372.5,489.5 C 372.5,493.833 372.5,498.167 372.5,502.5C 368.167,502.5 363.833,502.5 359.5,502.5C 359.5,511.167 359.5,519.833 359.5,528.5C 355.167,528.5 350.833,528.5 346.5,528.5C 346.5,524.167 346.5,519.833 346.5,515.5C 342.167,515.5 337.833,515.5 333.5,515.5C 333.5,511.167 333.5,506.833 333.5,502.5C 337.5,502.5 341.5,502.5 345.5,502.5C 346.485,498.366 346.818,494.032 346.5,489.5C 355.167,489.5 363.833,489.5 372.5,489.5 Z"/></g>
<g><path style="opacity:1" fill="#fefefe" d="M 476.5,502.5 C 472.167,502.5 467.833,502.5 463.5,502.5C 463.5,506.833 463.5,511.167 463.5,515.5C 459.167,515.5 454.833,515.5 450.5,515.5C 450.5,519.833 450.5,524.167 450.5,528.5C 446.167,528.5 441.833,528.5 437.5,528.5C 437.5,524.167 437.5,519.833 437.5,515.5C 428.833,515.5 420.167,515.5 411.5,515.5C 411.5,511.167 411.5,506.833 411.5,502.5C 424.5,502.5 437.5,502.5 450.5,502.5C 450.5,498.167 450.5,493.833 450.5,489.5C 459.167,489.5 467.833,489.5 476.5,489.5C 476.5,493.833 476.5,498.167 476.5,502.5 Z"/></g>
<g><path style="opacity:1" fill="#000000" d="M 502.5,528.5 C 506.833,528.5 511.167,528.5 515.5,528.5C 515.5,519.833 515.5,511.167 515.5,502.5C 519.833,502.5 524.167,502.5 528.5,502.5C 528.5,498.167 528.5,493.833 528.5,489.5C 532.833,489.5 537.167,489.5 541.5,489.5C 541.5,498.167 541.5,506.833 541.5,515.5C 537.167,515.5 532.833,515.5 528.5,515.5C 528.5,524.167 528.5,532.833 528.5,541.5C 519.833,541.5 511.167,541.5 502.5,541.5C 502.5,537.167 502.5,532.833 502.5,528.5 Z"/></g>
<g><path style="opacity:1" fill="#010101" d="M 254.5,515.5 C 263.167,515.5 271.833,515.5 280.5,515.5C 280.5,511.167 280.5,506.833 280.5,502.5C 289.167,502.5 297.833,502.5 306.5,502.5C 306.5,506.833 306.5,511.167 306.5,515.5C 310.833,515.5 315.167,515.5 319.5,515.5C 319.5,524.167 319.5,532.833 319.5,541.5C 315.167,541.5 310.833,541.5 306.5,541.5C 306.5,537.167 306.5,532.833 306.5,528.5C 302.167,528.5 297.833,528.5 293.5,528.5C 293.5,532.833 293.5,537.167 293.5,541.5C 280.5,541.5 267.5,541.5 254.5,541.5C 254.5,532.833 254.5,524.167 254.5,515.5 Z"/></g>
<g><path style="opacity:1" fill="#fefefe" d="M 476.5,502.5 C 489.5,502.5 502.5,502.5 515.5,502.5C 515.5,511.167 515.5,519.833 515.5,528.5C 511.167,528.5 506.833,528.5 502.5,528.5C 502.5,524.167 502.5,519.833 502.5,515.5C 498.167,515.5 493.833,515.5 489.5,515.5C 489.5,519.833 489.5,524.167 489.5,528.5C 485.167,528.5 480.833,528.5 476.5,528.5C 476.5,519.833 476.5,511.167 476.5,502.5 Z"/></g>
<g><path style="opacity:1" fill="#000000" d="M 502.5,528.5 C 498.167,528.5 493.833,528.5 489.5,528.5C 489.5,524.167 489.5,519.833 489.5,515.5C 493.833,515.5 498.167,515.5 502.5,515.5C 502.5,519.833 502.5,524.167 502.5,528.5 Z"/></g>
<g><path style="opacity:1" fill="#010101" d="M 372.5,528.5 C 376.833,528.5 381.167,528.5 385.5,528.5C 385.5,532.833 385.5,537.167 385.5,541.5C 381.167,541.5 376.833,541.5 372.5,541.5C 372.5,537.167 372.5,532.833 372.5,528.5 Z"/></g>
<g><path style="opacity:1" fill="#000000" d="M 476.5,528.5 C 480.833,528.5 485.167,528.5 489.5,528.5C 489.5,532.833 489.5,537.167 489.5,541.5C 485.167,541.5 480.833,541.5 476.5,541.5C 476.5,537.167 476.5,532.833 476.5,528.5 Z"/></g>
</svg>
